<svg width="226" height="68" viewBox="0 0 226 68" fill="none" xmlns="http://www.w3.org/2000/svg">
<rect width="225.27" height="67.9" rx="33.95" fill="#3E4DA8"/>
<path d="M51.5414 31.3372C51.4937 26.1762 55.8756 23.6653 56.076 23.5484C53.5943 20.0207 49.7479 19.5387 48.3962 19.5003C45.1656 19.1688 42.032 21.385 40.3863 21.385C38.7078 21.385 36.1736 19.5323 33.4423 19.5867C29.9276 19.6396 26.6395 21.6236 24.8362 24.7046C21.1146 30.9866 23.8902 40.2182 27.4558 45.296C29.2394 47.7828 31.3236 50.5595 34.0516 50.4618C36.7205 50.3546 37.7174 48.8029 40.9381 48.8029C44.1293 48.8029 45.0654 50.4618 47.8476 50.3994C50.712 50.3546 52.5153 47.9013 54.2365 45.3921C56.2977 42.5417 57.1255 39.7346 57.1583 39.5905C57.091 39.5681 51.5956 37.5232 51.5414 31.3372Z" fill="white"/>
<path d="M46.2857 16.1599C47.7212 14.4097 48.7033 12.0285 48.4307 9.61209C46.3531 9.70177 43.7548 11.0132 42.2586 12.7251C40.9348 14.2335 39.7523 16.706 40.0578 19.0311C42.3916 19.2008 44.7879 17.8829 46.2857 16.1599Z" fill="white"/>
<path d="M90.169 50.1056H86.4391L84.396 43.8461H77.2943L75.3481 50.1056H71.7168L78.7528 28.7952H83.0985L90.169 50.1056ZM83.7801 41.2199L81.9324 35.6553C81.737 35.0868 81.3707 33.7481 80.8304 31.6408H80.7647C80.5495 32.5471 80.203 33.8858 79.7267 35.6553L77.9119 41.2199H83.7801Z" fill="white"/>
<path d="M108.263 42.2338C108.263 44.8472 107.538 46.9129 106.09 48.4293C104.792 49.7793 103.181 50.4534 101.258 50.4534C99.182 50.4534 97.6907 49.7264 96.7825 48.2724H96.7168V56.3671H93.2152V39.7982C93.2152 38.1552 93.1709 36.4691 93.0854 34.7396H96.1649L96.3604 37.1752H96.4261C97.5938 35.3401 99.3659 34.4242 101.744 34.4242C103.603 34.4242 105.155 35.14 106.397 36.5731C107.642 38.0079 108.263 39.8943 108.263 42.2338ZM104.695 42.3587C104.695 40.8631 104.351 39.6301 103.657 38.6597C102.9 37.6476 101.884 37.1416 100.609 37.1416C99.7453 37.1416 98.9602 37.4234 98.259 37.9791C97.556 38.5396 97.0961 39.2714 96.881 40.1777C96.7726 40.6005 96.7184 40.9464 96.7184 41.2186V43.7807C96.7184 44.8984 97.0699 45.8416 97.7728 46.6118C98.4758 47.3821 99.3889 47.7664 100.512 47.7664C101.831 47.7664 102.858 47.27 103.592 46.2804C104.328 45.2891 104.695 43.9825 104.695 42.3587Z" fill="white"/>
<path d="M126.391 42.2338C126.391 44.8472 125.667 46.9129 124.216 48.4293C122.921 49.7793 121.309 50.4534 119.386 50.4534C117.31 50.4534 115.819 49.7264 114.912 48.2724H114.847V56.3671H111.345V39.7982C111.345 38.1552 111.301 36.4691 111.215 34.7396H114.295L114.49 37.1752H114.556C115.722 35.3401 117.494 34.4242 119.874 34.4242C121.732 34.4242 123.284 35.14 124.528 36.5731C125.768 38.0079 126.391 39.8943 126.391 42.2338ZM122.824 42.3587C122.824 40.8631 122.477 39.6301 121.784 38.6597C121.027 37.6476 120.014 37.1416 118.737 37.1416C117.872 37.1416 117.088 37.4234 116.386 37.9791C115.683 38.5396 115.224 39.2714 115.009 40.1777C114.902 40.6005 114.847 40.9464 114.847 41.2186V43.7807C114.847 44.8984 115.198 45.8416 115.898 46.6118C116.601 47.3805 117.514 47.7664 118.641 47.7664C119.959 47.7664 120.986 47.27 121.72 46.2804C122.456 45.2891 122.824 43.9825 122.824 42.3587Z" fill="white"/>
<path d="M146.657 44.1297C146.657 45.9424 146.012 47.4172 144.716 48.5557C143.292 49.8 141.31 50.4213 138.762 50.4213C136.41 50.4213 134.525 49.9793 133.098 49.0938L133.909 46.2482C135.446 47.1546 137.133 47.6094 138.971 47.6094C140.29 47.6094 141.316 47.3179 142.054 46.7382C142.788 46.1586 143.154 45.3803 143.154 44.4099C143.154 43.5452 142.852 42.8166 142.246 42.2257C141.643 41.6348 140.636 41.0856 139.23 40.578C135.404 39.1864 133.492 37.1479 133.492 34.4673C133.492 32.7155 134.162 31.2791 135.504 30.1613C136.841 29.042 138.624 28.4832 140.855 28.4832C142.844 28.4832 144.496 28.821 145.815 29.4952L144.939 32.2783C143.707 31.625 142.315 31.2983 140.756 31.2983C139.524 31.2983 138.562 31.5945 137.872 32.1838C137.289 32.7106 136.997 33.3528 136.997 34.1134C136.997 34.9557 137.33 35.6523 138 36.1999C138.583 36.706 139.643 37.2536 141.18 37.8445C143.06 38.5827 144.442 39.4458 145.33 40.4354C146.215 41.4219 146.657 42.6565 146.657 44.1297Z" fill="white"/>
<path d="M158.235 37.3012H154.375V44.7618C154.375 46.6593 155.055 47.6073 156.418 47.6073C157.044 47.6073 157.563 47.5545 157.974 47.4488L158.071 50.0413C157.381 50.2927 156.473 50.4192 155.347 50.4192C153.965 50.4192 152.884 50.0077 152.104 49.1862C151.327 48.3631 150.936 46.9828 150.936 45.0436V37.298H148.637V34.7359H150.936V31.9223L154.375 30.9103V34.7359H158.235V37.3012Z" fill="white"/>
<path d="M175.648 42.2959C175.648 44.6579 174.955 46.5971 173.572 48.1135C172.121 49.6748 170.197 50.4531 167.797 50.4531C165.485 50.4531 163.644 49.7052 162.27 48.2096C160.897 46.714 160.211 44.826 160.211 42.5505C160.211 40.1694 160.917 38.219 162.335 36.7025C163.749 35.1844 165.657 34.4254 168.057 34.4254C170.369 34.4254 172.23 35.1732 173.634 36.6705C174.978 38.1229 175.648 39.998 175.648 42.2959ZM172.015 42.4064C172.015 40.9892 171.704 39.7738 171.075 38.7602C170.341 37.5336 169.292 36.9219 167.932 36.9219C166.524 36.9219 165.455 37.5352 164.721 38.7602C164.092 39.7754 163.781 41.0101 163.781 42.4705C163.781 43.8876 164.092 45.103 164.721 46.1151C165.478 47.3417 166.536 47.9534 167.901 47.9534C169.237 47.9534 170.287 47.3289 171.044 46.083C171.69 45.0502 172.015 43.822 172.015 42.4064Z" fill="white"/>
<path d="M187.029 37.7426C186.682 37.6802 186.313 37.6481 185.925 37.6481C184.693 37.6481 183.741 38.1013 183.071 39.0093C182.488 39.8099 182.195 40.822 182.195 42.0438V50.1064H178.695L178.728 39.5793C178.728 37.8083 178.684 36.1957 178.597 34.7417H181.647L181.775 37.6818H181.872C182.241 36.6713 182.824 35.8579 183.622 35.2478C184.403 34.6985 185.245 34.4247 186.153 34.4247C186.477 34.4247 186.769 34.4471 187.029 34.4871V37.7426Z" fill="white"/>
<path d="M202.69 41.6957C202.69 42.3074 202.649 42.823 202.562 43.2442H192.057C192.098 44.7622 192.606 45.9232 193.581 46.7239C194.466 47.4396 195.611 47.7983 197.017 47.7983C198.572 47.7983 199.991 47.5565 201.268 47.0713L201.816 49.4413C200.325 50.0754 198.564 50.3909 196.533 50.3909C194.089 50.3909 192.17 49.6895 190.774 48.2883C189.382 46.8872 188.684 45.0056 188.684 42.6453C188.684 40.3282 189.332 38.3986 190.631 36.8597C191.991 35.2167 193.829 34.3953 196.142 34.3953C198.413 34.3953 200.133 35.2167 201.3 36.8597C202.225 38.1648 202.69 39.7789 202.69 41.6957ZM199.351 40.8102C199.374 39.7981 199.146 38.9238 198.671 38.1856C198.065 37.236 197.134 36.762 195.881 36.762C194.736 36.762 193.805 37.2248 193.093 38.1536C192.51 38.8918 192.164 39.7773 192.057 40.8086H199.351V40.8102Z" fill="white"/>
<path d="M82.6201 15.6831C82.6201 17.5679 82.0404 18.9867 80.8825 19.9394C79.81 20.8186 78.2859 21.2589 76.3117 21.2589C75.3329 21.2589 74.4952 21.2173 73.7939 21.134V10.8359C74.7088 10.6918 75.6942 10.6181 76.7584 10.6181C78.639 10.6181 80.0564 11.0169 81.0122 11.8143C82.0831 12.7159 82.6201 14.0049 82.6201 15.6831ZM80.8053 15.7296C80.8053 14.5077 80.4735 13.571 79.81 12.9176C79.1465 12.2659 78.1775 11.9392 76.9013 11.9392C76.3594 11.9392 75.8978 11.9745 75.5152 12.0481V19.877C75.727 19.909 76.1146 19.9234 76.678 19.9234C77.9952 19.9234 79.0118 19.5663 79.7279 18.8521C80.444 18.1379 80.8053 17.0971 80.8053 15.7296Z" fill="white"/>
<path d="M92.2416 17.3284C92.2416 18.4894 91.9016 19.4406 91.2217 20.1868C90.5089 20.9538 89.5645 21.3365 88.3853 21.3365C87.2487 21.3365 86.3438 20.9698 85.6688 20.2332C84.9954 19.4982 84.6587 18.5711 84.6587 17.4533C84.6587 16.2844 85.0052 15.3252 85.7016 14.5806C86.398 13.8359 87.3341 13.4628 88.5134 13.4628C89.6499 13.4628 90.5631 13.8295 91.2545 14.5645C91.9115 15.2787 92.2416 16.2011 92.2416 17.3284ZM90.4563 17.3829C90.4563 16.6863 90.3019 16.089 89.9948 15.591C89.6335 14.9889 89.1194 14.6878 88.451 14.6878C87.7595 14.6878 87.2339 14.9889 86.8726 15.591C86.5639 16.089 86.4111 16.6959 86.4111 17.4133C86.4111 18.1099 86.5655 18.7072 86.8726 19.2052C87.2454 19.8073 87.7644 20.1083 88.4345 20.1083C89.0915 20.1083 89.6072 19.8025 89.9784 19.1892C90.297 18.6815 90.4563 18.0794 90.4563 17.3829Z" fill="white"/>
<path d="M105.145 13.6169L102.723 21.1656H101.146L100.143 17.8877C99.8879 17.0694 99.681 16.2559 99.52 15.4489H99.4888C99.3394 16.2783 99.1324 17.0902 98.8664 17.8877L97.8005 21.1656H96.2057L93.9277 13.6169H95.6966L96.572 17.2055C96.7838 18.0542 96.9579 18.8629 97.0975 19.6283H97.1287C97.2568 18.9974 97.4687 18.1935 97.7676 17.2215L98.8664 13.6185H100.269L101.322 17.1447C101.576 18.0046 101.783 18.8325 101.943 19.6299H101.99C102.107 18.8533 102.283 18.0254 102.516 17.1447L103.455 13.6185H105.145V13.6169Z" fill="white"/>
<path d="M114.067 21.1656H112.345V16.8421C112.345 15.5098 111.826 14.8436 110.785 14.8436C110.274 14.8436 109.862 15.0262 109.542 15.3929C109.225 15.7596 109.064 16.1919 109.064 16.6867V21.164H107.343V15.774C107.343 15.111 107.321 14.392 107.28 13.6138H108.793L108.873 14.794H108.921C109.121 14.4273 109.42 14.1246 109.813 13.8828C110.279 13.601 110.802 13.4585 111.373 13.4585C112.096 13.4585 112.697 13.6859 113.175 14.1422C113.769 14.7011 114.067 15.5354 114.067 16.6435V21.1656Z" fill="white"/>
<path d="M118.815 21.1655H117.095V10.1532H118.815V21.1655Z" fill="white"/>
<path d="M128.95 17.3285C128.95 18.4894 128.61 19.4406 127.93 20.1868C127.217 20.9538 126.271 21.3366 125.093 21.3366C123.955 21.3366 123.05 20.9699 122.377 20.2333C121.703 19.4982 121.367 18.5711 121.367 17.4534C121.367 16.2844 121.713 15.3252 122.41 14.5806C123.106 13.836 124.042 13.4629 125.22 13.4629C126.358 13.4629 127.269 13.8296 127.963 14.5646C128.619 15.2788 128.95 16.2011 128.95 17.3285ZM127.163 17.3829C127.163 16.6863 127.008 16.089 126.701 15.591C126.341 14.9889 125.826 14.6879 125.159 14.6879C124.466 14.6879 123.94 14.9889 123.581 15.591C123.272 16.089 123.119 16.6959 123.119 17.4133C123.119 18.1099 123.274 18.7072 123.581 19.2052C123.953 19.8073 124.472 20.1084 125.143 20.1084C125.799 20.1084 126.314 19.8025 126.685 19.1892C127.005 18.6816 127.163 18.0795 127.163 17.3829Z" fill="white"/>
<path d="M137.276 21.1652H135.73L135.602 20.2957H135.555C135.026 20.9891 134.272 21.3366 133.293 21.3366C132.562 21.3366 131.971 21.1076 131.526 20.6528C131.122 20.2397 130.92 19.7256 130.92 19.1155C130.92 18.1932 131.314 17.4902 132.107 17.0034C132.899 16.5166 134.013 16.278 135.446 16.2892V16.1483C135.446 15.1539 134.911 14.6574 133.838 14.6574C133.075 14.6574 132.401 14.8448 131.82 15.2163L131.47 14.1146C132.189 13.6806 133.078 13.4629 134.126 13.4629C136.149 13.4629 137.164 14.5037 137.164 16.5854V19.3653C137.164 20.1196 137.202 20.7201 137.276 21.1652ZM135.489 18.5711V17.4069C133.59 17.3749 132.641 17.8825 132.641 18.9282C132.641 19.3221 132.75 19.6167 132.971 19.8137C133.193 20.0107 133.475 20.1084 133.812 20.1084C134.19 20.1084 134.543 19.9915 134.865 19.7593C135.188 19.5255 135.387 19.2292 135.461 18.8657C135.479 18.7841 135.489 18.6848 135.489 18.5711Z" fill="white"/>
<path d="M147.058 21.1655H145.53L145.45 19.9533H145.402C144.914 20.8757 144.083 21.3369 142.916 21.3369C141.983 21.3369 141.206 20.9798 140.59 20.2656C139.974 19.5514 139.667 18.6242 139.667 17.4857C139.667 16.2639 140 15.2743 140.67 14.5184C141.319 13.8139 142.114 13.4616 143.06 13.4616C144.1 13.4616 144.827 13.8026 145.241 14.4864H145.274V10.1532H146.997V19.1319C146.997 19.8669 147.017 20.5442 147.058 21.1655ZM145.274 17.9821V16.7235C145.274 16.5057 145.258 16.3295 145.226 16.195C145.13 15.7915 144.921 15.452 144.604 15.1782C144.284 14.9044 143.898 14.7666 143.453 14.7666C142.81 14.7666 142.308 15.0148 141.938 15.5129C141.572 16.0109 141.387 16.6466 141.387 17.4232C141.387 18.1695 141.562 18.7748 141.915 19.2407C142.288 19.7372 142.791 19.9854 143.42 19.9854C143.985 19.9854 144.436 19.7788 144.78 19.364C145.111 18.9813 145.274 18.5201 145.274 17.9821Z" fill="white"/>
<path d="M161.779 17.3285C161.779 18.4894 161.439 19.4406 160.759 20.1868C160.046 20.9538 159.104 21.3366 157.923 21.3366C156.788 21.3366 155.883 20.9699 155.206 20.2333C154.533 19.4982 154.196 18.5711 154.196 17.4534C154.196 16.2844 154.543 15.3252 155.239 14.5806C155.936 13.836 156.872 13.4629 158.053 13.4629C159.187 13.4629 160.102 13.8296 160.792 14.5646C161.449 15.2788 161.779 16.2011 161.779 17.3285ZM159.996 17.3829C159.996 16.6863 159.841 16.089 159.534 15.591C159.171 14.9889 158.659 14.6879 157.989 14.6879C157.299 14.6879 156.773 14.9889 156.41 15.591C156.101 16.089 155.949 16.6959 155.949 17.4133C155.949 18.1099 156.103 18.7072 156.41 19.2052C156.783 19.8073 157.302 20.1084 157.972 20.1084C158.629 20.1084 159.146 19.8025 159.518 19.1892C159.835 18.6816 159.996 18.0795 159.996 17.3829Z" fill="white"/>
<path d="M171.033 21.166H169.314V16.8425C169.314 15.5102 168.795 14.844 167.752 14.844C167.241 14.844 166.829 15.0266 166.51 15.3933C166.191 15.76 166.032 16.1923 166.032 16.6871V21.1644H164.309V15.7744C164.309 15.1114 164.29 14.3924 164.249 13.6142H165.76L165.84 14.7944H165.888C166.09 14.4277 166.389 14.125 166.779 13.8832C167.248 13.6014 167.768 13.4589 168.341 13.4589C169.062 13.4589 169.663 13.6863 170.141 14.1426C170.738 14.7015 171.033 15.5358 171.033 16.6439V21.166Z" fill="white"/>
<path d="M182.617 14.8732H180.721V18.5402C180.721 19.4722 181.058 19.9382 181.725 19.9382C182.034 19.9382 182.29 19.9125 182.492 19.8597L182.536 21.1327C182.196 21.2576 181.749 21.3201 181.199 21.3201C180.519 21.3201 179.99 21.1183 179.608 20.7148C179.223 20.3113 179.033 19.6323 179.033 18.6795V14.8732H177.901V13.6161H179.033V12.2326L180.72 11.7362V13.6145H182.615V14.8732H182.617Z" fill="white"/>
<path d="M191.729 21.1655H190.006V16.874C190.006 15.5209 189.487 14.8435 188.448 14.8435C187.65 14.8435 187.104 15.2358 186.805 16.0205C186.755 16.1854 186.725 16.3872 186.725 16.6242V21.1639H185.005V10.1532H186.725V14.7026H186.758C187.3 13.8747 188.077 13.4616 189.083 13.4616C189.796 13.4616 190.386 13.689 190.854 14.1453C191.437 14.7138 191.729 15.5593 191.729 16.677V21.1655Z" fill="white"/>
<path d="M201.127 17.0336C201.127 17.3346 201.104 17.5876 201.063 17.7942H195.901C195.924 18.5404 196.171 19.1089 196.649 19.5028C197.085 19.8551 197.649 20.0313 198.339 20.0313C199.102 20.0313 199.799 19.9128 200.426 19.6742L200.695 20.8399C199.961 21.1506 199.097 21.3059 198.097 21.3059C196.898 21.3059 195.954 20.9616 195.271 20.2731C194.584 19.5845 194.244 18.6605 194.244 17.5012C194.244 16.3626 194.561 15.4146 195.2 14.6588C195.867 13.8517 196.768 13.4482 197.907 13.4482C199.02 13.4482 199.866 13.8517 200.438 14.6588C200.899 15.2993 201.127 16.092 201.127 17.0336ZM199.485 16.5996C199.498 16.1016 199.385 15.6725 199.152 15.3106C198.853 14.8446 198.398 14.6108 197.782 14.6108C197.22 14.6108 196.762 14.8382 196.412 15.2945C196.126 15.658 195.957 16.092 195.901 16.5996H199.485Z" fill="white"/>
</svg>
