<svg width="250" height="250" viewBox="0 0 250 250" fill="none" xmlns="http://www.w3.org/2000/svg">
<rect width="250" height="250" fill="#2F3473"/>
<path d="M182.205 181.01C184.448 182.33 186.394 183.486 188.355 184.636C189.548 185.328 190.753 185.996 191.972 186.659C195.131 188.392 197.12 192.363 196.448 195.611C195.724 199.154 192.226 202.094 188.539 202.501C185.066 202.863 182.284 201.319 179.495 199.654C171.239 194.759 162.987 189.864 154.692 185.049C153.712 184.509 152.612 184.222 151.494 184.215C131.115 184.15 110.737 184.252 90.3544 184.081C81.2413 184.005 72.2331 182.816 63.6664 179.367C58.3809 177.243 53.5187 174.422 49.8141 170.016C45.6512 165.193 43.2983 159.064 43.1611 152.688C42.9296 142.721 42.9549 132.746 42.9585 122.778C42.9585 108.398 42.8789 94.0141 43.143 79.63C43.3601 67.8024 49.3293 59.4012 59.5892 53.8863C66.3363 50.2604 73.6549 48.5816 81.1724 47.9579C88.1293 47.3814 95.1296 47.1639 102.115 47.1131C118.515 46.9971 134.917 46.9209 151.316 47.1385C158.586 47.1928 165.846 47.7038 173.052 48.6686C180.985 49.7854 188.608 52.2039 195.17 57.1786C202.221 62.534 205.835 69.7422 206.407 78.4916C206.675 82.5852 206.657 86.7006 206.664 90.8195C206.664 109.732 206.751 128.648 206.595 147.561C206.563 151.55 206.147 155.694 205.047 159.526C202.655 167.866 197.041 173.686 189.404 177.587C187.186 178.704 184.9 179.734 182.205 181.01ZM185.692 116.194H185.764C185.764 104.536 185.786 92.8792 185.764 81.2183C185.764 76.1782 183.435 72.3566 179.176 69.7641C171.858 65.3042 163.62 63.9445 155.328 63.8103C135.142 63.4804 114.947 63.6472 94.7569 63.716C87.9498 63.765 81.2026 64.998 74.8162 67.36C69.3028 69.3688 65.1677 72.9005 63.9631 79.0246C63.793 79.9123 63.7094 80.8146 63.7134 81.7186C63.699 104.25 63.699 126.781 63.7134 149.312C63.7134 154.508 65.808 158.696 70.1311 161.742C73.8492 164.319 78.1268 165.969 82.6086 166.557C88.9071 167.453 95.2708 168.218 101.634 168.247C121.698 168.33 141.762 168.062 161.826 167.884C167.243 167.893 172.583 166.595 177.393 164.099C182.458 161.437 185.551 157.279 185.645 151.528C185.83 139.755 185.692 127.974 185.692 116.194Z" fill="white"/>
<path d="M127.853 125.051C132.342 120.37 136.709 115.794 141.097 111.244C146.328 105.814 151.571 100.399 156.824 94.9961C158.271 93.4985 160.148 93.4441 161.483 94.7168C162.887 96.0547 162.858 97.9801 161.353 99.5357C151.281 110.007 141.2 120.473 131.109 130.932C128.851 133.271 127.56 133.307 125.085 131.215C120.807 127.589 116.535 123.963 112.271 120.337C110.611 118.923 110.329 117.052 111.515 115.577C112.702 114.101 114.71 113.949 116.457 115.41C120.194 118.543 123.906 121.719 127.853 125.051Z" fill="white"/>
<path d="M164.08 102.738C166.156 106.703 167.462 111.026 167.929 115.479C170.176 135.98 157.109 154.276 136.904 158.431C123.829 161.118 112.213 157.677 102.336 148.591C102.159 148.428 101.996 148.246 101.823 148.083C101.099 147.398 100.64 146.607 101.432 145.733C102.224 144.86 103.103 145.197 103.964 145.86C106.497 147.811 108.877 149.987 111.605 151.582C133.279 164.233 161.891 149.689 164.786 124.667C165.484 118.659 164.919 112.825 162.615 107.263C161.776 105.222 161.862 103.876 164.08 102.738Z" fill="white"/>
<path d="M130.723 74.557V80.46C135.187 81.6274 139.586 82.5522 143.826 83.9516C148.066 85.3513 151.785 87.8931 155.204 91.0875L153.283 92.8061C149.477 90.6995 145.997 88.1541 142.107 86.7255C127.915 81.508 115.134 84.2272 103.959 94.4632C103.04 95.3044 102.11 96.936 100.728 95.4059C99.4221 93.9556 100.999 93.0056 101.886 92.1425C108.788 85.4747 117.055 81.8342 126.606 81.1127C126.841 81.1127 127.072 81.051 127.416 81.0039V74.5498C125.752 74.5498 124.16 74.5498 122.528 74.5498C121.421 74.5498 120.589 74.1872 120.607 72.9291C120.607 71.765 121.407 71.4207 122.442 71.4207C126.901 71.4207 131.363 71.4207 135.827 71.4207C136.942 71.4207 137.781 71.7832 137.737 73.0342C137.694 74.2852 136.815 74.5752 135.722 74.557C134.098 74.5354 132.481 74.557 130.723 74.557Z" fill="white"/>
<path d="M159.329 107.578C163.12 117.441 162.795 126.94 157.762 136.027C148.581 152.597 127.902 157.847 111.865 147.851C111.557 147.662 111.112 147.524 110.982 147.249C110.704 146.552 110.472 145.837 110.287 145.11C110.976 144.893 111.68 144.728 112.393 144.617C112.682 144.587 113.011 144.939 113.319 145.131C123.882 151.756 137.033 151.295 146.891 143.92C156.75 136.545 161 124.058 157.473 112.012C156.833 109.822 157.614 108.778 159.329 107.578Z" fill="white"/>
<path d="M150.932 95.5475L148.451 97.7881C145.227 95.1377 141.61 93.0165 137.478 91.8997C128.821 89.5612 120.659 90.6198 113.091 95.5765L112.787 95.7722C111.872 96.4139 110.805 97.1719 109.944 95.9861C109.083 94.8006 109.98 93.8831 111.029 93.2196C121.716 86.4283 132.786 85.696 144.164 91.276C146.461 92.3892 148.516 93.9992 150.932 95.5475Z" fill="white"/>
<path d="M92.9584 107.966C88.7473 107.966 84.5327 107.966 80.3217 107.966C79.2111 107.966 78.1331 107.872 78.0933 106.498C78.0461 105.022 79.1496 104.837 80.3434 104.84C88.7704 104.84 97.1961 104.84 105.621 104.84C106.738 104.84 107.939 104.84 107.929 106.421C107.918 108.002 106.713 107.948 105.599 107.948L92.9584 107.966Z" fill="white"/>
<path d="M84.1021 121.02C79.8295 121.02 75.5569 121.02 71.2845 121.02C70.1992 121.02 69.1427 120.936 69.1139 119.5C69.0849 118.064 70.152 117.916 71.2373 117.912H96.8725C97.9578 117.912 99.0033 118.086 98.9347 119.54C98.866 120.994 97.8241 121.027 96.7315 121.023C92.5277 121.012 88.3167 121.02 84.1021 121.02Z" fill="white"/>
<path d="M93.1174 131.037C97.2657 131.037 101.416 131.037 105.569 131.037C106.655 131.037 107.907 130.892 107.932 132.513C107.957 134.134 106.796 134.076 105.653 134.076C97.1705 134.076 88.688 134.076 80.2057 134.076C78.9612 134.076 77.9809 133.829 78.1184 132.325C78.2231 131.132 79.153 131.023 80.1225 131.027C84.4529 131.045 88.7833 131.037 93.1174 131.037Z" fill="white"/>
</svg>
