<svg width="43" height="41" viewBox="0 0 43 41" fill="none" xmlns="http://www.w3.org/2000/svg">
<g filter="url(#filter0_d_154_9)">
<path d="M15.0408 19.7616C14.1773 20.3595 13.812 21.6654 14.2909 22.6503C14.9265 23.9442 15.7227 25.1379 16.6575 26.1984C17.5532 27.2285 18.5859 28.0523 19.8244 28.5413C21.4711 29.1879 23.136 29.1103 24.7698 28.5622C27.6736 27.6097 30.3193 25.9068 32.4782 23.6005C35.1469 20.7442 35.7094 17.2344 34.1088 13.5682C33.2764 11.6609 32.1022 9.97609 31.0019 8.2461C30.5337 7.50914 29.7795 7.29014 28.9663 7.46743C27.7192 7.73626 26.8236 9.38629 27.4718 10.5265C27.5896 10.7339 27.6592 10.9448 27.4332 11.1059C27.2071 11.2669 27.0379 11.1128 26.9082 10.8984C26.6479 10.4651 26.3929 10.0271 26.1165 9.6053C25.9247 9.29821 25.6662 9.0467 25.3636 8.87283C25.061 8.69896 24.7235 8.60804 24.3809 8.60804C24.0383 8.60804 23.7008 8.69896 23.3982 8.87283C23.0957 9.0467 22.8371 9.29821 22.6453 9.6053C22.19 10.3098 22.0839 11.0549 22.5007 11.8324C22.6078 12.034 22.6421 12.2426 22.4353 12.3828C22.2286 12.523 22.0507 12.4141 21.9243 12.2055L21.7711 11.9575C21.5279 11.5647 21.3008 11.1592 21.0393 10.7814C20.7773 10.4063 20.4119 10.1309 19.9958 9.99487C19.5797 9.85888 19.1344 9.86935 18.7242 10.0248C17.8585 10.3504 17.2671 11.2148 17.3314 12.1904C17.3571 12.6029 17.5221 13.0097 17.6582 13.4048C17.7342 13.6249 17.7856 13.8173 17.5799 13.954C17.3742 14.0908 17.1921 14.0004 17.0657 13.7825C17.0111 13.6898 16.9586 13.5994 16.8975 13.5068C15.1526 10.6161 13.4084 7.72428 11.665 4.83131C11.2836 4.19401 10.7426 3.95299 10.0815 4.00745C8.28594 4.15693 7.431 6.05262 8.41236 7.68991C9.07125 8.78723 9.73656 9.87991 10.3987 10.9761C12.5178 14.4824 14.6369 17.9891 16.7561 21.4962C16.8707 21.6851 17.0443 21.9203 16.8011 22.0999C16.5579 22.2795 16.4229 22.0188 16.3018 21.8288C16.1808 21.6387 16.079 21.4615 15.9676 21.2772C15.6583 20.772 15.3501 20.2668 15.043 19.7616H15.0408Z" fill="#F4F4F4"/>
<path d="M10.0685 11.1756C11.7204 13.9088 13.3723 16.6422 15.0242 19.3759H14.9203L14.8213 19.4445C13.8033 20.1494 13.3808 21.6607 13.944 22.819L13.9447 22.8204C14.5949 24.144 15.4098 25.3661 16.3673 26.4524C17.2921 27.5159 18.373 28.383 19.6828 28.9001L19.6835 28.9004C21.4305 29.5863 23.1902 29.4987 24.8912 28.9283C27.8583 27.9549 30.5585 26.2157 32.7598 23.8641L32.76 23.8638C35.5378 20.8909 36.1222 17.2158 34.4623 13.4139C33.7619 11.8092 32.8223 10.356 31.9032 8.93464C31.7095 8.63508 31.5168 8.33694 31.3273 8.0391C30.7557 7.1395 29.8228 6.88605 28.8846 7.09047C28.1242 7.25456 27.5037 7.82701 27.1644 8.49562C26.9078 9.00118 26.7919 9.60319 26.9246 10.1743C26.7685 9.91439 26.6086 9.6526 26.4413 9.39729C26.2175 9.04013 25.9142 8.74437 25.5557 8.53839C25.1958 8.33158 24.7923 8.22233 24.3809 8.22233C23.9695 8.22233 23.566 8.33158 23.2061 8.53839C22.8472 8.74457 22.5437 9.04072 22.3198 9.39836C21.8984 10.0516 21.7294 10.7685 21.9515 11.5121C21.9283 11.4737 21.905 11.4349 21.8816 11.3958C21.7158 11.1195 21.5421 10.8301 21.3565 10.5619L21.3556 10.5605C21.0479 10.1201 20.615 9.79146 20.1156 9.62824C19.6159 9.46494 19.0805 9.47753 18.5884 9.66374C17.5683 10.0474 16.8713 11.0652 16.9464 12.2144C16.9692 12.5806 17.0867 12.9433 17.1966 13.2559C15.4623 10.3827 13.7286 7.50827 11.9957 4.63272C11.7738 4.26218 11.4924 3.98628 11.151 3.81515C10.8102 3.64432 10.4362 3.59121 10.0499 3.62304L10.0495 3.62307C9.01173 3.70946 8.22717 4.30745 7.85418 5.13174C7.48297 5.95208 7.53033 6.9686 8.08152 7.88821L8.08168 7.88846C8.50006 8.58525 8.9215 9.28094 9.34261 9.97609C9.5849 10.376 9.82707 10.7758 10.0685 11.1755L10.0685 11.1756Z" stroke="#2F3473" stroke-width="0.771429" stroke-miterlimit="4.10912" stroke-linecap="round"/>
</g>
<defs>
<filter id="filter0_d_154_9" x="0.478514" y="0.335658" width="42.043" height="40.043" filterUnits="userSpaceOnUse" color-interpolation-filters="sRGB">
<feFlood flood-opacity="0" result="BackgroundImageFix"/>
<feColorMatrix in="SourceAlpha" type="matrix" values="0 0 0 0 0 0 0 0 0 0 0 0 0 0 0 0 0 0 127 0" result="hardAlpha"/>
<feOffset dy="3.85714"/>
<feGaussianBlur stdDeviation="3.375"/>
<feComposite in2="hardAlpha" operator="out"/>
<feColorMatrix type="matrix" values="0 0 0 0 0 0 0 0 0 0 0 0 0 0 0 0 0 0 0.1 0"/>
<feBlend mode="normal" in2="BackgroundImageFix" result="effect1_dropShadow_154_9"/>
<feBlend mode="normal" in="SourceGraphic" in2="effect1_dropShadow_154_9" result="shape"/>
</filter>
</defs>
</svg>
