<svg width="226" height="68" viewBox="0 0 226 68" fill="none" xmlns="http://www.w3.org/2000/svg">
<rect x="0.458008" y="-6.10352e-05" width="225.27" height="67.9" rx="33.95" fill="#3E4DA8"/>
<path d="M47.6343 35.216L42.7283 37.9926L38.328 33.6199L42.7633 29.2121L47.6343 31.9687C47.9218 32.1313 48.1609 32.3672 48.3273 32.6525C48.4938 32.9378 48.5814 33.2621 48.5814 33.5923C48.5814 33.9226 48.4938 34.2469 48.3273 34.5322C48.1609 34.8175 47.9218 35.0534 47.6343 35.216ZM21.7447 19.7256C21.6522 19.9512 21.6046 20.1927 21.6045 20.4366V46.7468C21.6045 47.0185 21.6608 47.2714 21.7597 47.4979L35.7242 33.6186L21.7447 19.7256ZM37.0261 32.3255L41.1046 28.272L24.3899 18.813C24.0315 18.6074 23.6143 18.5285 23.2056 18.5889L37.0261 32.3255ZM37.0261 34.9131L23.2557 48.5996C23.6287 48.6446 24.0218 48.5795 24.3899 48.3705L41.0696 38.9315L37.0261 34.9131Z" fill="white"/>
<path d="M76.8687 16.9448C76.8687 18.2819 76.4587 19.3528 75.651 20.1515C74.7222 21.0983 73.5126 21.5747 72.0304 21.5747C70.6137 21.5747 69.4041 21.0903 68.4118 20.1355C67.4175 19.1667 66.9214 17.9777 66.9214 16.5545C66.9214 15.1313 67.4175 13.9424 68.4118 12.9816C69.4041 12.0188 70.6137 11.5344 72.0304 11.5344C72.7356 11.5344 73.4081 11.6765 74.0498 11.9407C74.6894 12.2069 75.2102 12.5672 75.5874 13.0116L74.7304 13.8563C74.0723 13.0977 73.1764 12.7233 72.0304 12.7233C70.9971 12.7233 70.1012 13.0756 69.3406 13.7862C68.5882 14.4988 68.2109 15.4216 68.2109 16.5545C68.2109 17.6874 68.5882 18.6182 69.3406 19.3308C70.1012 20.0334 70.9971 20.3937 72.0304 20.3937C73.1272 20.3937 74.0498 20.0334 74.7776 19.3228C75.2573 18.8524 75.53 18.2039 75.6018 17.3752H72.0304V16.2182H76.7949C76.8523 16.4684 76.8687 16.7106 76.8687 16.9448Z" fill="white"/>
<path d="M84.429 12.9334H79.9535V15.9759H83.9882V17.1329H79.9535V20.1754H84.429V21.3544H78.6865V11.7544H84.429V12.9334Z" fill="white"/>
<path d="M89.7617 21.3544H88.4947V12.9334H85.7495V11.7544H92.5089V12.9334H89.7617V21.3544Z" fill="white"/>
<path d="M97.3999 21.3544V11.7544H98.6649V21.3544H97.3999Z" fill="white"/>
<path d="M104.274 21.3544H103.017V12.9334H100.262V11.7544H107.029V12.9334H104.274V21.3544Z" fill="white"/>
<path d="M119.825 20.1195C118.855 21.0903 117.654 21.5747 116.221 21.5747C114.779 21.5747 113.578 21.0903 112.608 20.1195C111.64 19.1507 111.159 17.9617 111.159 16.5545C111.159 15.1473 111.64 13.9584 112.608 12.9896C113.578 12.0188 114.779 11.5344 116.221 11.5344C117.645 11.5344 118.847 12.0188 119.817 12.9976C120.792 13.9744 121.274 15.1554 121.274 16.5545C121.274 17.9617 120.792 19.1507 119.825 20.1195ZM113.545 19.3148C114.275 20.0334 115.163 20.3937 116.221 20.3937C117.27 20.3937 118.166 20.0334 118.888 19.3148C119.616 18.5962 119.985 17.6734 119.985 16.5545C119.985 15.4356 119.616 14.5128 118.888 13.7942C118.166 13.0756 117.27 12.7153 116.221 12.7153C115.163 12.7153 114.275 13.0756 113.545 13.7942C112.817 14.5128 112.448 15.4356 112.448 16.5545C112.448 17.6734 112.817 18.5962 113.545 19.3148Z" fill="white"/>
<path d="M123.054 21.3544V11.7544H124.591L129.372 19.2206H129.428L129.372 17.3751V11.7544H130.637V21.3544H129.317L124.31 13.5199H124.255L124.31 15.3734V21.3544H123.054Z" fill="white"/>
<path d="M110.85 35.375C106.998 35.375 103.851 38.2374 103.851 42.1867C103.851 46.1039 106.998 48.9963 110.85 48.9963C114.71 48.9963 117.857 46.1039 117.857 42.1867C117.857 38.2374 114.71 35.375 110.85 35.375ZM110.85 46.3141C108.736 46.3141 106.918 44.6107 106.918 42.1867C106.918 39.7306 108.736 38.0572 110.85 38.0572C112.964 38.0572 114.79 39.7306 114.79 42.1867C114.79 44.6107 112.964 46.3141 110.85 46.3141ZM95.5782 35.375C91.7178 35.375 88.579 38.2374 88.579 42.1867C88.579 46.1039 91.7178 48.9963 95.5782 48.9963C99.4366 48.9963 102.577 46.1039 102.577 42.1867C102.577 38.2374 99.4366 35.375 95.5782 35.375ZM95.5782 46.3141C93.4625 46.3141 91.6378 44.6107 91.6378 42.1867C91.6378 39.7306 93.4625 38.0572 95.5782 38.0572C97.6919 38.0572 99.5104 39.7306 99.5104 42.1867C99.5104 44.6107 97.6919 46.3141 95.5782 46.3141ZM77.4056 37.4627V40.3571H84.4848C84.2778 41.9745 83.7242 43.1635 82.8754 43.9921C81.8422 44.993 80.2328 46.1039 77.4056 46.1039C73.049 46.1039 69.6376 42.6711 69.6376 38.4175C69.6376 34.164 73.049 30.7312 77.4056 30.7312C79.7613 30.7312 81.4752 31.6299 82.7401 32.7949L84.8293 30.7552C83.06 29.1058 80.7064 27.8388 77.4056 27.8388C71.4315 27.8388 66.4106 32.5847 66.4106 38.4175C66.4106 44.2504 71.4315 48.9963 77.4056 48.9963C80.6346 48.9963 83.06 47.9634 84.9666 46.0258C86.9204 44.1182 87.5293 41.436 87.5293 39.2702C87.5293 38.5977 87.4719 37.9792 87.3694 37.4627H77.4056ZM151.716 39.7066C151.14 38.1833 149.362 35.375 145.741 35.375C142.154 35.375 139.167 38.1353 139.167 42.1867C139.167 46.0018 142.123 48.9963 146.086 48.9963C149.29 48.9963 151.14 47.0887 151.9 45.9778L149.522 44.4305C148.729 45.5634 147.648 46.3141 146.086 46.3141C144.534 46.3141 143.421 45.6195 142.707 44.2504L152.037 40.4812L151.716 39.7066ZM142.203 41.9745C142.123 39.3483 144.292 38.0032 145.846 38.0032C147.064 38.0032 148.097 38.5977 148.442 39.4484L142.203 41.9745ZM134.619 48.5819H137.686V28.5654H134.619V48.5819ZM129.596 36.8923H129.494C128.805 36.0956 127.491 35.375 125.826 35.375C122.333 35.375 119.139 38.3695 119.139 42.2087C119.139 46.0258 122.333 48.9963 125.826 48.9963C127.491 48.9963 128.805 48.2697 129.494 47.449H129.596V48.4258C129.596 51.03 128.172 52.4291 125.873 52.4291C124 52.4291 122.837 51.108 122.357 49.9971L119.69 51.084C120.459 52.8895 122.495 55.1113 125.873 55.1113C129.469 55.1113 132.504 53.0456 132.504 48.0195V35.7894H129.596V36.8923ZM126.089 46.3141C123.975 46.3141 122.206 44.5866 122.206 42.2087C122.206 39.8087 123.975 38.0572 126.089 38.0572C128.172 38.0572 129.814 39.8087 129.814 42.2087C129.814 44.5866 128.172 46.3141 126.089 46.3141ZM166.075 28.5654H158.739V48.5819H161.798V40.9977H166.075C169.472 40.9977 172.804 38.5977 172.804 34.7805C172.804 30.9654 169.464 28.5654 166.075 28.5654ZM166.155 38.2134H161.798V31.3497H166.155C168.439 31.3497 169.743 33.2012 169.743 34.7805C169.743 36.3298 168.439 38.2134 166.155 38.2134ZM185.063 35.337C182.853 35.337 180.555 36.2898 179.61 38.4015L182.324 39.5124C182.909 38.4015 183.983 38.0412 185.119 38.0412C186.706 38.0412 188.315 38.972 188.34 40.6154V40.8255C187.786 40.5133 186.601 40.0509 185.143 40.0509C182.22 40.0509 179.241 41.6222 179.241 44.5546C179.241 47.2368 181.636 48.9642 184.327 48.9642C186.386 48.9642 187.522 48.0575 188.235 47.0026H188.34V48.5499H191.294V40.8716C191.294 37.3226 188.579 35.337 185.063 35.337ZM184.694 46.3061C183.694 46.3061 182.3 45.8217 182.3 44.6107C182.3 43.0614 184.038 42.4669 185.543 42.4669C186.89 42.4669 187.522 42.7571 188.34 43.1394C188.1 44.993 186.466 46.3061 184.694 46.3061ZM202.057 35.7754L198.541 44.4525H198.437L194.802 35.7754H191.503L196.965 47.9014L193.848 54.6489H197.045L205.46 35.7754H202.057ZM174.485 48.5819H177.552V28.5654H174.485V48.5819Z" fill="white"/>
</svg>
