<svg width="141" height="46" viewBox="0 0 141 46" fill="none" xmlns="http://www.w3.org/2000/svg">
<g clip-path="url(#clip0_90_2491)">
<path d="M76.6214 0.0129974C80.3947 -0.19049 83.3044 2.01467 84.6165 5.27155C85.4607 7.36425 85.6315 9.5298 85.2906 11.7178C85.0482 13.2783 84.5425 14.7894 83.6324 16.1164C83.3982 16.458 83.4069 16.6626 83.6994 16.9646C84.3409 17.6264 84.9102 18.3569 85.5452 19.0187C86.0475 19.5457 85.9653 20.4346 85.5621 20.802C85.0278 21.2893 84.123 21.2839 83.6732 20.7023C83.1546 20.034 82.5306 19.4493 81.9911 18.7949C81.7167 18.4618 81.5361 18.4533 81.1661 18.6878C78.4381 20.4121 75.5785 20.5085 72.7946 18.9641C70.425 17.6479 69.1042 15.4802 68.6276 12.792C68.2139 10.4552 68.3613 8.17071 69.2184 5.96236C70.1803 3.48407 71.7832 1.5595 74.3078 0.564556C75.039 0.27646 75.8489 0.191853 76.6214 0.0129974ZM79.8044 16.5619C79.7532 16.4878 79.6949 16.4183 79.6314 16.3541C78.6584 15.5434 77.7005 14.7134 76.7018 13.9358C76.0883 13.4582 75.8349 12.6903 76.206 12.1216C76.6611 11.4222 77.3649 11.2648 78.0542 11.8003C79.1157 12.6207 80.1488 13.4807 81.1696 14.3525C81.4609 14.6009 81.6403 14.6652 81.7913 14.2679C82.0925 13.4743 82.4625 12.6967 82.66 11.8774C83.0882 10.1543 83.0171 8.34457 82.4549 6.66063C81.8705 4.90527 80.7868 3.53655 79.0353 2.8961C76.5777 1.99754 73.7717 3.0696 72.3483 5.28333C71.0881 7.24215 70.7507 9.38202 70.9593 11.6621C71.2798 15.0625 73.372 17.2313 76.7356 17.4711C77.8281 17.5494 78.8903 17.2987 79.8044 16.5619Z" fill="#191919"/>
<path d="M75.8421 34.4346C76.3921 35.2914 76.9736 36.16 77.5079 37.0521C78.8555 39.3012 79.7575 41.7077 80.0459 44.3284C80.0872 44.7035 79.9824 45.0802 79.7534 45.3797C79.5238 45.6791 79.1882 45.878 78.8159 45.9349C78.1371 46.0484 77.4811 45.5557 77.3005 44.8189C77.0016 43.598 76.7662 42.3556 76.3659 41.169C75.6638 39.1052 74.442 37.3231 73.1217 35.6063C73.0262 35.482 72.8007 35.4381 72.6201 35.4081C72.4878 35.3857 72.3416 35.4499 72.2006 35.4703C71.1926 35.618 71.1821 35.617 71.1809 36.6698C71.1809 39.2566 71.185 41.8434 71.1926 44.4301C71.1926 45.062 70.8861 45.5204 70.3612 45.7378C69.8869 45.9338 69.2926 45.9424 68.9249 45.5044C68.6697 45.2023 68.4559 44.7621 68.4419 44.3766C68.3825 42.6298 68.3825 40.8798 68.393 39.1288C68.4198 34.8112 68.4559 30.4938 68.4996 26.1762C68.5107 24.9446 69.0147 24.3802 70.2365 24.3909C71.5294 24.4027 72.8467 24.3759 74.1064 24.6126C76.1777 25.0024 77.8342 26.1216 78.612 28.1683C79.3042 29.9889 78.7734 31.6329 77.4857 33.0231C77.0045 33.5478 76.402 33.9634 75.8421 34.4346ZM71.3231 29.9365H71.2077C71.2077 30.7215 71.2077 31.5065 71.2077 32.2926C71.2077 32.5465 71.2287 32.7703 71.5719 32.7403C72.9941 32.6118 74.3313 32.2487 75.3876 31.2195C76.3741 30.2556 76.2767 28.8826 75.1744 28.1051C74.1448 27.3789 72.9731 27.0898 71.724 27.0694C71.4216 27.0694 71.3155 27.183 71.3196 27.4785C71.3295 28.2979 71.3231 29.1171 71.3231 29.9365Z" fill="#191919"/>
<path d="M132.323 10.4337C131.825 10.9789 131.381 11.4308 130.982 11.9214C130.865 12.0649 130.839 12.3187 130.845 12.519C130.91 14.4971 131.013 16.4752 131.05 18.4534C131.05 18.886 130.931 19.3103 130.706 19.6796C130.443 20.1015 129.938 20.1937 129.468 20.032C128.869 19.8253 128.586 19.3423 128.545 18.7253C128.485 17.8 128.401 16.8736 128.404 15.9472C128.42 11.1128 128.463 6.27832 128.491 1.44496C128.491 0.885905 128.736 0.493923 129.239 0.266874C129.708 0.0526762 130.141 0.159774 130.542 0.452155C130.942 0.744533 130.969 1.20184 130.959 1.65487C130.925 3.67047 130.889 5.68607 130.853 7.7017C130.838 7.9041 130.882 8.10644 130.98 8.28427C131.367 7.90835 131.76 7.54105 132.137 7.15657C134.207 5.0417 136.278 2.92471 138.348 0.80558C139.013 0.125503 139.871 0.0558889 140.391 0.651357C140.86 1.18685 140.846 1.82945 140.33 2.36494C138.982 3.76936 137.628 5.16986 136.269 6.56643C135.692 7.16192 135.127 7.77128 134.518 8.33248C134.226 8.60236 134.233 8.7962 134.435 9.10039C136.01 11.4566 137.578 13.816 139.137 16.1786C139.499 16.7247 139.851 17.2784 140.206 17.8279C140.678 18.5551 140.542 19.2919 139.856 19.7192C139.265 20.0876 138.489 19.8596 138.062 19.2051C136.191 16.3349 134.307 13.4614 132.323 10.4337Z" fill="#191919"/>
<path d="M85.8846 37.7546C85.9999 39.4746 86.1153 41.1282 86.2173 42.7883C86.2394 43.1599 86.4789 43.2349 86.762 43.2166C88.2717 43.1492 89.7807 43.0806 91.2898 42.9864C91.8241 42.9543 92.3444 42.8268 92.8752 42.7851C93.4939 42.7368 94.1704 43.3141 94.2834 43.9428C94.3906 44.549 93.9484 45.2547 93.2725 45.4422C92.7435 45.5887 92.2028 45.6886 91.6563 45.741C89.3874 45.9552 87.118 46.1565 84.8428 45.7978C84.2147 45.6981 83.769 45.3597 83.7166 44.7128C83.5144 42.2281 83.2976 39.7413 83.2056 37.2502C83.1269 35.1082 83.1543 32.9662 83.2423 30.8242C83.3128 29.0999 83.5243 27.3799 83.7125 25.6632C83.7772 25.0656 84.2211 24.6993 84.8084 24.5922C87.4233 24.1231 90.0511 24.1338 92.684 24.3908C93.0907 24.4375 93.4928 24.5137 93.8884 24.619C94.573 24.7892 94.9855 25.5015 94.8497 26.2426C94.7367 26.8777 94.1436 27.3211 93.4531 27.2782C91.7536 27.1711 90.0552 27.0479 88.355 26.9676C87.8434 26.9441 87.326 27.0405 86.8133 27.0886C86.4299 27.1251 86.2138 27.2911 86.1946 27.7312C86.1025 29.9446 85.9941 32.1544 85.8689 34.3607C85.8432 34.8009 86.0034 34.9304 86.4125 34.9026C86.9095 34.8694 87.4082 34.8608 87.9087 34.8576C88.7454 34.8576 89.3181 35.3717 89.3671 36.1578C89.4119 36.8785 88.9161 37.459 88.1266 37.5501C87.4129 37.6475 86.6875 37.6871 85.8846 37.7546Z" fill="#191919"/>
<path d="M101.217 41.0414C101.217 42.1478 101.231 43.2541 101.211 44.3615C101.2 45.0652 100.677 45.6703 100.057 45.7731C99.7309 45.8225 99.3982 45.758 99.1151 45.5904C98.8313 45.4228 98.614 45.1625 98.4998 44.8531C98.4462 44.6838 98.4211 44.5069 98.4246 44.3294C98.4491 38.4597 98.4765 32.5892 98.508 26.718C98.508 26.522 98.5196 26.3261 98.5371 26.1301C98.6157 25.1972 99.0306 24.7174 99.9611 24.6446C102.304 24.4626 104.569 24.6618 106.554 26.1312C108.016 27.2139 108.936 28.5944 109.199 30.429C109.639 33.4995 107.729 35.845 105.47 36.7071C104.276 37.1782 102.992 37.3768 101.712 37.2887C101.261 37.2534 101.167 37.4301 101.178 37.8306C101.196 38.9016 101.184 39.9726 101.184 41.0436L101.217 41.0414ZM101.266 30.8746H101.231C101.231 31.9252 101.238 32.9769 101.225 34.0275C101.225 34.3349 101.306 34.4988 101.641 34.4838C102.33 34.4506 103.043 34.5373 103.702 34.3863C106.474 33.7437 107.385 31.0277 105.704 29.0196C104.658 27.7697 103.192 27.4463 101.667 27.2964C101.312 27.2611 101.264 27.4956 101.265 27.7762C101.268 28.8086 101.262 29.8421 101.262 30.8746H101.266Z" fill="#191919"/>
<path d="M102.691 7.07398C102.466 9.20629 102.294 11.5154 101.955 13.7998C101.727 15.3377 101.358 16.8885 100.194 18.0591C98.4074 19.8541 96.2732 20.6037 93.7538 20.1336C91.5398 19.7212 90.2026 18.2679 89.3286 16.3155C88.4214 14.3374 87.9711 12.1797 88.0113 10.0031C88.0742 7.25711 88.1797 4.51216 88.2845 1.76829C88.3061 1.22209 88.4622 0.714435 89.0326 0.45847C89.9293 0.052566 90.8901 0.672668 90.8587 1.67833C90.8126 3.13915 90.6588 4.59677 90.6396 6.05651C90.6134 8.06892 90.5679 10.0909 90.7229 12.0937C90.8429 13.5507 91.3201 14.9554 92.1125 16.1827C93.1945 17.8877 94.9354 18.073 96.7265 17.4679C98.2909 16.942 99.011 15.6826 99.3122 14.1586C99.973 10.8192 100.249 7.4531 99.9194 4.05271C99.8454 3.2923 99.7749 2.52976 99.6694 1.77365C99.543 0.871871 100.167 0.274261 100.775 0.232492C101.53 0.178942 102.082 0.640538 102.173 1.51018C102.359 3.30087 102.509 5.08942 102.691 7.07398Z" fill="#191919"/>
<path d="M112.89 11.1417C112.948 12.9152 113.363 14.7252 114.718 16.1871C115.598 17.137 116.708 17.6779 118.009 17.7218C119.168 17.7604 120.32 17.6918 121.408 17.2099C122.242 16.8393 122.845 16.2717 123.152 15.3946C123.373 14.7659 124.081 14.3889 124.63 14.5763C124.954 14.6824 125.226 14.9102 125.387 15.212C125.548 15.5138 125.586 15.8662 125.493 16.1957C125.001 17.8182 123.891 18.9139 122.366 19.5275C120.565 20.2494 118.667 20.4678 116.765 20.048C114.386 19.5232 112.626 18.1524 111.523 15.9375C110.469 13.8245 110.159 11.5958 110.472 9.2899C110.927 5.93557 112.258 3.04071 115.241 1.1879C117.013 0.0879981 118.973 -0.081219 120.997 0.371809C122.006 0.57974 122.943 1.04908 123.714 1.73304C124.223 2.19249 124.348 2.70335 124.107 3.20778C123.986 3.46844 123.781 3.6808 123.525 3.8109C123.269 3.94098 122.978 3.98129 122.696 3.92535C122.421 3.86167 122.165 3.7348 121.948 3.55479C120.901 2.73977 119.704 2.50308 118.435 2.69799C115.911 3.09105 114.521 4.78535 113.638 7.02373C113.137 8.30247 112.925 9.62302 112.89 11.1417Z" fill="#191919"/>
<path d="M134.256 32.3611C134.634 31.6553 134.998 30.9955 135.343 30.3262C136.251 28.5648 137.155 26.8005 138.054 25.0334C138.318 24.5161 138.721 24.2012 139.308 24.1916C139.842 24.182 140.342 24.3961 140.519 24.9006C140.652 25.2818 140.711 25.8217 140.542 26.1558C138.099 30.9506 135.609 35.7197 133.137 40.4984C132.365 41.9978 131.606 43.4972 130.848 44.9966C130.516 45.6574 129.614 46.0333 128.993 45.7463C128.323 45.4411 127.994 44.5457 128.352 43.8378C129.658 41.2674 131.001 38.7174 132.306 36.1449C133.024 34.7269 133.054 35.181 132.059 34.0479C129.952 31.6596 127.85 29.2677 125.755 26.8723C125.123 26.1504 125.168 25.4168 125.848 24.8192C126.408 24.3265 127.231 24.439 127.818 25.1062C129.546 27.0736 131.269 29.0464 132.998 31.0074C133.386 31.4465 133.791 31.8641 134.256 32.3611Z" fill="#191919"/>
<path d="M112.553 35.165C112.676 31.8353 112.789 28.6812 112.914 25.5261C112.924 25.2496 113.021 24.9834 113.191 24.7655C113.361 24.5476 113.596 24.3891 113.861 24.3127C114.502 24.1477 115.136 24.3277 115.387 24.8642C115.552 25.2155 115.591 25.6525 115.587 26.0499C115.55 29.6344 115.47 33.2191 115.45 36.8036C115.439 38.6929 115.535 40.5831 115.557 42.4734C115.557 42.9286 115.711 43.0893 116.17 43.116C118.925 43.2574 121.679 43.387 124.435 43.1417C125.068 43.085 125.674 43.463 125.835 43.9718C126.06 44.6754 125.896 45.2891 125.301 45.6425C124.999 45.8225 124.655 45.9207 124.303 45.9274C121.44 45.9135 118.578 45.8685 115.716 45.8299C115.236 45.8235 114.754 45.7989 114.276 45.7892C113.527 45.7743 112.952 45.2537 112.922 44.5105C112.79 41.3371 112.67 38.1659 112.553 35.165Z" fill="#191919"/>
<path d="M105.438 10.1424C105.438 7.37712 105.438 4.61287 105.438 1.84758C105.438 1.11931 106.032 0.492782 106.707 0.536693C107.266 0.573107 107.923 0.941529 107.921 1.8283C107.921 2.88109 107.893 3.93279 107.886 4.98557C107.857 9.42802 107.842 13.8748 107.787 18.3119C107.772 18.7447 107.634 19.1642 107.391 19.5221C107.088 19.9634 106.561 19.9954 106.083 19.7942C105.832 19.6977 105.617 19.5256 105.468 19.3016C105.318 19.0775 105.242 18.8126 105.249 18.5432C105.238 17.3127 105.259 16.08 105.262 14.8504C105.262 13.2797 105.262 11.7089 105.262 10.1381L105.438 10.1424Z" fill="#191919"/>
<path d="M57.0344 23.0884C57.0344 30.5283 57.0323 37.9692 57.028 45.4111C57.028 45.6392 57.1786 46.0162 56.7298 46.0012C56.5931 46.0012 56.4328 45.8288 56.3398 45.6959C56.2811 45.6113 56.3248 45.4539 56.3248 45.3286V0.790496C56.3248 0.648059 56.2779 0.469201 56.3462 0.371741C56.4526 0.233223 56.6037 0.135958 56.7736 0.0964978C56.8346 0.0815041 56.9713 0.274281 57.028 0.394233C57.0697 0.482054 57.0365 0.608429 57.0365 0.715527V23.0884H57.0344Z" fill="#C6C6C6"/>
<path d="M41.1328 39.631C41.7953 40.0209 42.3702 40.3625 42.9494 40.702C43.302 40.9066 43.6579 41.1037 44.0179 41.2997C44.9508 41.8116 45.5385 42.9843 45.3398 43.9439C45.1261 44.9903 44.0927 45.8589 43.0038 45.9788C41.978 46.0859 41.1563 45.6297 40.3324 45.1381C37.8939 43.6923 35.4565 42.2464 33.0063 40.8241C32.7167 40.6646 32.3921 40.5799 32.0617 40.5778C26.0424 40.5585 20.0231 40.5885 14.0028 40.5382C11.311 40.5157 8.65023 40.1644 6.11987 39.1459C4.55866 38.5183 3.1225 37.6851 2.02827 36.3838C0.798672 34.9591 0.10368 33.1489 0.0631645 31.2656C-0.00522443 28.3214 0.00225586 25.3751 0.00332443 22.431C0.00332443 18.1834 -0.0201832 13.9349 0.0578228 9.6862C0.121938 6.19264 1.88508 3.71118 4.91556 2.08221C6.90848 1.01122 9.0702 0.515349 11.2907 0.331139C13.3455 0.160851 15.4132 0.0965922 17.4767 0.0815986C22.3205 0.0473267 27.1655 0.0248351 32.0093 0.0890942C34.1566 0.105132 36.3008 0.256081 38.4293 0.541051C40.7727 0.870916 43.0242 1.58527 44.9626 3.05466C47.0452 4.63651 48.1127 6.76561 48.2815 9.34993C48.3606 10.5591 48.3553 11.7747 48.3574 12.9913C48.3574 18.5776 48.383 24.1649 48.3371 29.7512C48.3275 30.9293 48.2046 32.1534 47.8798 33.2854C47.1734 35.7487 45.515 37.4676 43.2593 38.62C42.6042 38.9499 41.9289 39.2541 41.1328 39.631ZM42.1629 20.4861H42.1843C42.1843 17.0428 42.1907 13.5996 42.1843 10.1553C42.1843 8.66663 41.4961 7.53782 40.2384 6.77207C38.0766 5.45475 35.6435 5.05312 33.1943 5.01349C27.2317 4.91604 21.2669 4.96531 15.3032 4.98565C13.2925 5.00011 11.2996 5.36429 9.41321 6.06198C7.78472 6.65532 6.56332 7.69847 6.2075 9.50738C6.15727 9.76958 6.13257 10.0361 6.13373 10.3031C6.12948 16.9582 6.12948 23.6134 6.13373 30.2685C6.13373 31.8032 6.75244 33.0402 8.02937 33.9398C9.12759 34.7009 10.3911 35.1885 11.7149 35.3621C13.5753 35.6266 15.4549 35.8526 17.3346 35.8612C23.2609 35.8858 29.1872 35.8066 35.1135 35.7541C36.7135 35.7568 38.2907 35.3732 39.7116 34.636C41.2076 33.8499 42.1212 32.6215 42.149 30.9228C42.2035 27.4453 42.1629 23.9657 42.1629 20.4861Z" fill="#2F3473"/>
<path d="M25.0784 23.1024C26.4045 21.7197 27.6943 20.3681 28.9905 19.024C30.5356 17.4204 32.084 15.8207 33.6356 14.225C34.063 13.7826 34.6176 13.7665 35.0119 14.1424C35.4265 14.5376 35.418 15.1063 34.9735 15.5658C31.9985 18.6588 29.0208 21.75 26.0401 24.8395C25.3733 25.5303 24.9919 25.541 24.261 24.923C22.9972 23.8521 21.7355 22.7811 20.4761 21.7101C19.9856 21.2924 19.9023 20.7398 20.2527 20.3039C20.6032 19.868 21.1963 19.823 21.7124 20.2546C22.8162 21.1799 23.9126 22.1181 25.0784 23.1024Z" fill="#2F3473"/>
<path d="M35.779 16.5116C36.3922 17.6827 36.778 18.9598 36.916 20.2751C37.5796 26.3304 33.7199 31.7346 27.7519 32.962C23.8901 33.7556 20.4589 32.7392 17.5417 30.0553C17.4893 30.0071 17.4412 29.9536 17.39 29.9054C17.1762 29.703 17.0405 29.4695 17.2745 29.2114C17.5086 28.9533 17.7682 29.0529 18.0225 29.2489C18.7705 29.825 19.4737 30.4676 20.2793 30.9389C26.6812 34.6756 35.1326 30.3798 35.9874 22.989C36.1936 21.2143 36.0269 19.4911 35.3463 17.8482C35.0984 17.2453 35.124 16.8479 35.779 16.5116Z" fill="#2F3473"/>
<path d="M25.9269 8.18782V9.93139C27.2456 10.2762 28.5449 10.5494 29.7973 10.9627C31.0497 11.3761 32.1482 12.1269 33.158 13.0705L32.5906 13.5781C31.4664 12.9559 30.4385 12.204 29.2897 11.782C25.0977 10.2409 21.3225 11.0441 18.0216 14.0676C17.7502 14.316 17.4756 14.798 17.0674 14.346C16.6816 13.9176 17.1475 13.637 17.4093 13.3821C19.4482 11.4126 21.8899 10.3373 24.7109 10.1242C24.7804 10.1242 24.8488 10.106 24.9502 10.092V8.18566C24.4587 8.18566 23.9885 8.18566 23.5066 8.18566C23.1797 8.18566 22.9339 8.07858 22.9392 7.70697C22.9392 7.36314 23.1754 7.26141 23.481 7.26141C24.7982 7.26141 26.1161 7.26141 27.4347 7.26141C27.7638 7.26141 28.0118 7.36849 27.9989 7.73801C27.9861 8.10752 27.7264 8.19318 27.4037 8.18782C26.924 8.18141 26.4463 8.18782 25.9269 8.18782Z" fill="#2F3473"/>
<path d="M34.3762 17.9413C35.4961 20.8544 35.3999 23.6604 33.9135 26.3443C31.2015 31.2387 25.0935 32.7895 20.3566 29.8368C20.2657 29.7811 20.1343 29.7404 20.0958 29.659C20.0137 29.4531 19.9452 29.242 19.8906 29.0271C20.094 28.9631 20.3019 28.9143 20.5125 28.8815C20.598 28.8729 20.6953 28.9768 20.7861 29.0335C23.9063 30.9903 27.7906 30.8542 30.7025 28.6758C33.6144 26.4975 34.87 22.809 33.8281 19.2511C33.6389 18.6043 33.8697 18.2958 34.3762 17.9413Z" fill="#2F3473"/>
<path d="M31.8959 14.3878L31.1628 15.0496C30.2107 14.2668 29.1422 13.6402 27.9218 13.3104C25.3648 12.6196 22.954 12.9323 20.7186 14.3964L20.6288 14.4542C20.3585 14.6437 20.0432 14.8676 19.7889 14.5174C19.5346 14.1672 19.7996 13.8962 20.1095 13.7002C23.2661 11.6943 26.5359 11.4779 29.8966 13.1261C30.5751 13.455 31.1821 13.9305 31.8959 14.3878Z" fill="#2F3473"/>
<path d="M14.772 18.0559C13.5282 18.0559 12.2833 18.0559 11.0395 18.0559C10.7115 18.0559 10.3931 18.0281 10.3813 17.6222C10.3674 17.1863 10.6933 17.1317 11.0459 17.1327C13.535 17.1327 16.0237 17.1327 18.5121 17.1327C18.8423 17.1327 19.1971 17.1327 19.1938 17.5997C19.1906 18.0667 18.8348 18.0506 18.5057 18.0506L14.772 18.0559Z" fill="#2F3473"/>
<path d="M12.1563 21.9116C10.8943 21.9116 9.63227 21.9116 8.37032 21.9116C8.04975 21.9116 7.73768 21.8869 7.72917 21.4629C7.72061 21.0387 8.03582 20.9948 8.35639 20.9937H15.9283C16.2489 20.9937 16.5577 21.0451 16.5374 21.4746C16.5171 21.9041 16.2094 21.9137 15.8867 21.9127C14.645 21.9094 13.4012 21.9116 12.1563 21.9116Z" fill="#2F3473"/>
<path d="M14.8189 24.8706C16.0442 24.8706 17.2702 24.8706 18.4969 24.8706C18.8175 24.8706 19.1872 24.8278 19.1947 25.3065C19.2022 25.7853 18.8591 25.7681 18.5215 25.7681C16.016 25.7681 13.5106 25.7681 11.0051 25.7681C10.6375 25.7681 10.348 25.6953 10.3886 25.2508C10.4195 24.8985 10.6942 24.8663 10.9805 24.8674C12.2596 24.8728 13.5387 24.8706 14.8189 24.8706Z" fill="#2F3473"/>
</g>
<defs>
<clipPath id="clip0_90_2491">
<rect width="141" height="46" fill="white"/>
</clipPath>
</defs>
</svg>
