<svg width="43" height="43" viewBox="0 0 43 43" fill="none" xmlns="http://www.w3.org/2000/svg">
<g filter="url(#filter0_d_132_3)">
<mask id="path-1-outside-1_132_3" maskUnits="userSpaceOnUse" x="7" y="3" width="29" height="29" fill="black">
<rect fill="white" x="7" y="3" width="29" height="29"/>
<path d="M35 14.2796C34.9265 14.7677 34.7329 15.2299 34.4364 15.6248C34.1399 16.0196 33.7499 16.3348 33.3013 16.5419C32.401 17.0339 31.4724 17.492 30.5721 17.9954C29.1113 18.8154 27.6108 19.5676 26.1669 20.416C26.1182 20.4559 26.0617 20.4852 26.001 20.5021C25.9403 20.519 25.8767 20.523 25.8144 20.514C25.7521 20.5049 25.6923 20.483 25.6389 20.4496C25.5855 20.4161 25.5397 20.372 25.5044 20.3198C22.9847 17.7805 20.4423 15.258 17.9056 12.73C17.5093 12.3284 17.1016 11.9382 16.6939 11.5479C16.5502 11.3923 16.351 11.2992 16.1393 11.2886C15.9275 11.278 15.7201 11.3508 15.5615 11.4914C15.3965 11.6248 15.2885 11.8158 15.259 12.0257C15.2296 12.2357 15.281 12.449 15.4029 12.6225C15.5022 12.7555 15.6141 12.8786 15.737 12.9901C18.5681 15.8293 21.3993 18.6571 24.2304 21.4736C24.2894 21.5154 24.3392 21.5689 24.3766 21.6308C24.414 21.6926 24.4383 21.7615 24.4478 21.8332C24.4574 21.9048 24.4521 21.9777 24.4322 22.0472C24.4123 22.1167 24.3783 22.1813 24.3323 22.2371C23.0809 24.4994 21.8579 26.8125 20.6235 29.1031C20.3397 29.7092 19.8776 30.2145 19.2989 30.5517C18.7202 30.8888 18.0523 31.0418 17.3844 30.9902C16.7164 30.9386 16.0801 30.6849 15.5602 30.2628C15.0403 29.8408 14.6615 29.2705 14.4743 28.628C13.642 25.9755 12.8209 23.3173 11.9886 20.6592C10.9014 17.164 9.81239 13.6688 8.72146 10.1736C8.52328 9.5345 8.31944 8.89542 8.15524 8.25067C7.97018 7.68295 7.95014 7.07443 8.09747 6.49579C8.24481 5.91715 8.55345 5.39214 8.98757 4.9817C9.38863 4.54806 9.90694 4.2398 10.4797 4.09426C11.0525 3.94872 11.6553 3.97213 12.2151 4.16164C13.8741 4.68762 15.5332 5.19663 17.1922 5.71695C19.0381 6.28251 20.8953 6.84808 22.7469 7.41364C26.0725 8.43166 29.3925 9.46288 32.7068 10.5073C34.1507 10.9937 34.9943 12.1927 35 14.2796Z"/>
</mask>
<path d="M35 14.2796C34.9265 14.7677 34.7329 15.2299 34.4364 15.6248C34.1399 16.0196 33.7499 16.3348 33.3013 16.5419C32.401 17.0339 31.4724 17.492 30.5721 17.9954C29.1113 18.8154 27.6108 19.5676 26.1669 20.416C26.1182 20.4559 26.0617 20.4852 26.001 20.5021C25.9403 20.519 25.8767 20.523 25.8144 20.514C25.7521 20.5049 25.6923 20.483 25.6389 20.4496C25.5855 20.4161 25.5397 20.372 25.5044 20.3198C22.9847 17.7805 20.4423 15.258 17.9056 12.73C17.5093 12.3284 17.1016 11.9382 16.6939 11.5479C16.5502 11.3923 16.351 11.2992 16.1393 11.2886C15.9275 11.278 15.7201 11.3508 15.5615 11.4914C15.3965 11.6248 15.2885 11.8158 15.259 12.0257C15.2296 12.2357 15.281 12.449 15.4029 12.6225C15.5022 12.7555 15.6141 12.8786 15.737 12.9901C18.5681 15.8293 21.3993 18.6571 24.2304 21.4736C24.2894 21.5154 24.3392 21.5689 24.3766 21.6308C24.414 21.6926 24.4383 21.7615 24.4478 21.8332C24.4574 21.9048 24.4521 21.9777 24.4322 22.0472C24.4123 22.1167 24.3783 22.1813 24.3323 22.2371C23.0809 24.4994 21.8579 26.8125 20.6235 29.1031C20.3397 29.7092 19.8776 30.2145 19.2989 30.5517C18.7202 30.8888 18.0523 31.0418 17.3844 30.9902C16.7164 30.9386 16.0801 30.6849 15.5602 30.2628C15.0403 29.8408 14.6615 29.2705 14.4743 28.628C13.642 25.9755 12.8209 23.3173 11.9886 20.6592C10.9014 17.164 9.81239 13.6688 8.72146 10.1736C8.52328 9.5345 8.31944 8.89542 8.15524 8.25067C7.97018 7.68295 7.95014 7.07443 8.09747 6.49579C8.24481 5.91715 8.55345 5.39214 8.98757 4.9817C9.38863 4.54806 9.90694 4.2398 10.4797 4.09426C11.0525 3.94872 11.6553 3.97213 12.2151 4.16164C13.8741 4.68762 15.5332 5.19663 17.1922 5.71695C19.0381 6.28251 20.8953 6.84808 22.7469 7.41364C26.0725 8.43166 29.3925 9.46288 32.7068 10.5073C34.1507 10.9937 34.9943 12.1927 35 14.2796Z" fill="#F4F4F4"/>
<path d="M35 14.2796L35.7628 14.3944L35.7716 14.3363L35.7714 14.2775L35 14.2796ZM33.3013 16.5419L32.9779 15.8415L32.9542 15.8524L32.9314 15.8649L33.3013 16.5419ZM30.5721 17.9954L30.1957 17.322L30.1945 17.3227L30.5721 17.9954ZM26.1669 20.416L25.7761 19.7509L25.7243 19.7813L25.6779 19.8194L26.1669 20.416ZM25.5044 20.3198L26.143 19.8871L26.1027 19.8275L26.052 19.7765L25.5044 20.3198ZM17.9056 12.73L17.3566 13.2719L17.3611 13.2764L17.9056 12.73ZM16.6939 11.5479L16.1273 12.0714L16.1434 12.0888L16.1605 12.1052L16.6939 11.5479ZM15.5615 11.4914L16.0467 12.0911L16.0601 12.0802L16.0731 12.0687L15.5615 11.4914ZM15.4029 12.6225L14.7716 13.0659L14.7781 13.075L14.7847 13.0839L15.4029 12.6225ZM15.737 12.9901L16.2832 12.4454L16.2696 12.4317L16.2553 12.4188L15.737 12.9901ZM24.2304 21.4736L23.6863 22.0205L23.732 22.0659L23.7846 22.1032L24.2304 21.4736ZM24.3323 22.2371L23.7372 21.7463L23.6918 21.8013L23.6573 21.8637L24.3323 22.2371ZM20.6235 29.1031L19.9444 28.7371L19.9341 28.7562L19.9249 28.7759L20.6235 29.1031ZM14.4743 28.628L15.2149 28.4123L15.2127 28.4046L15.2103 28.397L14.4743 28.628ZM11.9886 20.6592L11.252 20.8883L11.2524 20.8897L11.9886 20.6592ZM8.72146 10.1736L7.98465 10.4021L7.98507 10.4034L8.72146 10.1736ZM8.15524 8.25067L8.9028 8.06028L8.89654 8.0357L8.88868 8.01159L8.15524 8.25067ZM8.98757 4.9817L9.51755 5.54226L9.53635 5.52449L9.55392 5.50549L8.98757 4.9817ZM12.2151 4.16164L11.9677 4.89233L11.9748 4.89473L11.9819 4.897L12.2151 4.16164ZM17.1922 5.71695L16.9613 6.45304L16.9662 6.45453L17.1922 5.71695ZM22.7469 7.41364L22.9727 6.676L22.9722 6.67587L22.7469 7.41364ZM32.7068 10.5073L32.9531 9.77623L32.9459 9.77381L32.9386 9.77153L32.7068 10.5073ZM34.2372 14.1648C34.1827 14.5264 34.0392 14.8689 33.8195 15.1616L35.0533 16.088C35.4265 15.5909 35.6703 15.009 35.7628 14.3944L34.2372 14.1648ZM33.8195 15.1616C33.5997 15.4542 33.3106 15.6879 32.9779 15.8415L33.6247 17.2422C34.1891 16.9816 34.68 16.585 35.0533 16.088L33.8195 15.1616ZM32.9314 15.8649C32.1014 16.3185 31.068 16.8343 30.1957 17.322L30.9486 18.6687C31.8768 18.1497 32.7006 17.7493 33.6713 17.2188L32.9314 15.8649ZM30.1945 17.3227C28.7913 18.1104 27.2132 18.9065 25.7761 19.7509L26.5577 21.0811C28.0083 20.2288 29.4312 19.5205 30.9497 18.6681L30.1945 17.3227ZM25.6779 19.8194C25.7121 19.7913 25.7518 19.7707 25.7944 19.7589L26.2076 21.2454C26.3716 21.1998 26.5243 21.1205 26.6559 21.0126L25.6779 19.8194ZM25.7944 19.7589C25.837 19.747 25.8816 19.7442 25.9252 19.7505L25.7036 21.2774C25.8719 21.3018 26.0436 21.291 26.2076 21.2454L25.7944 19.7589ZM25.9252 19.7505C25.9689 19.7569 26.0108 19.7723 26.0483 19.7958L25.2295 21.1034C25.3737 21.1937 25.5352 21.253 25.7036 21.2774L25.9252 19.7505ZM26.0483 19.7958C26.0858 19.8192 26.1181 19.8503 26.143 19.8871L24.8658 20.7526C24.9613 20.8936 25.0852 21.013 25.2295 21.1034L26.0483 19.7958ZM26.052 19.7765C23.5303 17.2351 20.9852 14.71 18.4502 12.1835L17.3611 13.2764C19.8994 15.8061 22.4391 18.3258 24.9568 20.8632L26.052 19.7765ZM18.4547 12.188C18.0493 11.7774 17.6337 11.3796 17.2274 10.9907L16.1605 12.1052C16.5695 12.4967 16.9692 12.8794 17.3566 13.2719L18.4547 12.188ZM17.2606 11.0245C16.9798 10.7205 16.591 10.5388 16.1777 10.5181L16.1008 12.0591C16.111 12.0596 16.1205 12.0641 16.1273 12.0714L17.2606 11.0245ZM16.1777 10.5181C15.7645 10.4975 15.3596 10.6396 15.0498 10.914L16.0731 12.0687C16.0806 12.0621 16.0905 12.0586 16.1008 12.0591L16.1777 10.5181ZM15.0762 10.8917C14.7595 11.148 14.5517 11.515 14.4951 11.9186L16.023 12.1328C16.0253 12.1166 16.0336 12.1016 16.0467 12.0911L15.0762 10.8917ZM14.4951 11.9186C14.4385 12.3223 14.5374 12.7324 14.7716 13.0659L16.0342 12.1791C16.0247 12.1655 16.0207 12.149 16.023 12.1328L14.4951 11.9186ZM14.7847 13.0839C14.9137 13.2567 15.059 13.4166 15.2187 13.5615L16.2553 12.4188C16.1691 12.3406 16.0907 12.2543 16.0211 12.1611L14.7847 13.0839ZM15.1907 13.5348C18.0226 16.3747 20.8545 19.2032 23.6863 22.0205L24.7745 20.9267C21.9441 18.1109 19.1137 15.2838 16.2832 12.4454L15.1907 13.5348ZM23.7846 22.1032C23.7572 22.0838 23.734 22.0589 23.7165 22.0299L25.0367 21.2316C24.9444 21.0789 24.8217 20.947 24.6762 20.844L23.7846 22.1032ZM23.7165 22.0299C23.699 22.001 23.6876 21.9688 23.6832 21.9353L25.2125 21.7311C25.1889 21.5543 25.1291 21.3843 25.0367 21.2316L23.7165 22.0299ZM23.6832 21.9353C23.6787 21.9018 23.6812 21.8677 23.6905 21.8351L25.1739 22.2593C25.223 22.0877 25.2361 21.9079 25.2125 21.7311L23.6832 21.9353ZM23.6905 21.8351C23.6998 21.8025 23.7157 21.7723 23.7372 21.7463L24.9275 22.7279C25.0409 22.5904 25.1248 22.4309 25.1739 22.2593L23.6905 21.8351ZM23.6573 21.8637C22.4032 24.1308 21.1748 26.4539 19.9444 28.7371L21.3026 29.469C22.541 27.1711 23.7586 24.868 25.0073 22.6105L23.6573 21.8637ZM19.9249 28.7759C19.7076 29.2399 19.3538 29.6269 18.9106 29.8851L19.6872 31.2182C20.4014 30.8022 20.9717 30.1785 21.3221 29.4303L19.9249 28.7759ZM18.9106 29.8851C18.4673 30.1434 17.9556 30.2606 17.4438 30.2211L17.325 31.7593C18.1491 31.823 18.9731 31.6343 19.6872 31.2182L18.9106 29.8851ZM17.4438 30.2211C16.932 30.1815 16.4446 29.9871 16.0464 29.6639L15.074 30.8618C15.7156 31.3826 16.5008 31.6957 17.325 31.7593L17.4438 30.2211ZM16.0464 29.6639C15.6482 29.3407 15.3582 28.904 15.2149 28.4123L13.7337 28.8438C13.9647 29.637 14.4324 30.3409 15.074 30.8618L16.0464 29.6639ZM15.2103 28.397C14.3765 25.7396 13.5599 23.0958 12.7248 20.4287L11.2524 20.8897C12.0819 23.5389 12.9074 26.2114 13.7383 28.859L15.2103 28.397ZM12.7252 20.4301C11.638 16.9346 10.5489 13.4392 9.45786 9.94375L7.98507 10.4034C9.07592 13.8984 10.1649 17.3933 11.252 20.8883L12.7252 20.4301ZM9.45828 9.94511C9.25714 9.29647 9.06087 8.68092 8.9028 8.06028L7.40767 8.44106C7.57802 9.10991 7.78943 9.77253 7.98465 10.4021L9.45828 9.94511ZM8.88868 8.01159C8.7489 7.58276 8.73377 7.12317 8.84505 6.68614L7.3499 6.30544C7.1665 7.02569 7.19146 7.78313 7.42179 8.48975L8.88868 8.01159ZM8.84505 6.68614C8.95633 6.2491 9.18948 5.85243 9.51755 5.54226L8.4576 4.42114C7.91743 4.93184 7.53328 5.58521 7.3499 6.30544L8.84505 6.68614ZM9.55392 5.50549C9.85372 5.18133 10.2413 4.95079 10.6697 4.84193L10.2898 3.34659C9.5726 3.52881 8.92354 3.91479 8.42123 4.45791L9.55392 5.50549ZM10.6697 4.84193C11.0981 4.73307 11.549 4.75058 11.9677 4.89233L12.4624 3.43095C11.7616 3.19368 11.0069 3.16436 10.2898 3.34659L10.6697 4.84193ZM11.9819 4.897C13.6408 5.42291 15.3101 5.93515 16.9613 6.45302L17.4231 4.98087C15.7562 4.4581 14.1074 3.95232 12.4482 3.42628L11.9819 4.897ZM16.9662 6.45453C18.8125 7.02021 20.6709 7.58613 22.5215 8.15142L22.9722 6.67587C21.1198 6.11003 19.2637 5.54482 17.4182 4.97936L16.9662 6.45453ZM22.5211 8.15129C25.8447 9.16869 29.1626 10.1993 32.4749 11.2431L32.9386 9.77153C29.6223 8.72648 26.3003 7.69464 22.9727 6.676L22.5211 8.15129ZM32.4605 11.2384C33.0345 11.4317 33.4536 11.7505 33.7403 12.2049C34.0338 12.6701 34.226 13.3375 34.2286 14.2817L35.7714 14.2775C35.7683 13.1347 35.5358 12.1592 35.0451 11.3816C34.5476 10.5931 33.8229 10.0692 32.9531 9.77623L32.4605 11.2384Z" fill="#2F3473" mask="url(#path-1-outside-1_132_3)"/>
</g>
<defs>
<filter id="filter0_d_132_3" x="0.478514" y="0.335658" width="42.043" height="42.043" filterUnits="userSpaceOnUse" color-interpolation-filters="sRGB">
<feFlood flood-opacity="0" result="BackgroundImageFix"/>
<feColorMatrix in="SourceAlpha" type="matrix" values="0 0 0 0 0 0 0 0 0 0 0 0 0 0 0 0 0 0 127 0" result="hardAlpha"/>
<feOffset dy="3.85714"/>
<feGaussianBlur stdDeviation="3.375"/>
<feComposite in2="hardAlpha" operator="out"/>
<feColorMatrix type="matrix" values="0 0 0 0 0 0 0 0 0 0 0 0 0 0 0 0 0 0 0.1 0"/>
<feBlend mode="normal" in2="BackgroundImageFix" result="effect1_dropShadow_132_3"/>
<feBlend mode="normal" in="SourceGraphic" in2="effect1_dropShadow_132_3" result="shape"/>
</filter>
</defs>
</svg>
