<svg width="174" height="57" viewBox="0 0 174 57" fill="none" xmlns="http://www.w3.org/2000/svg">
<path d="M94.7356 0.0160701C99.4008 -0.235524 102.998 2.49096 104.621 6.51779C105.665 9.10523 105.876 11.7827 105.454 14.488C105.155 16.4174 104.529 18.2858 103.404 19.9264C103.114 20.3489 103.125 20.6018 103.487 20.9752C104.28 21.7935 104.984 22.6966 105.769 23.5149C106.39 24.1665 106.288 25.2655 105.79 25.7197C105.129 26.3223 104.011 26.3156 103.454 25.5966C102.813 24.7703 102.042 24.0473 101.375 23.2382C101.035 22.8264 100.812 22.8158 100.355 23.1058C96.9818 25.2377 93.4461 25.3569 90.0041 23.4474C87.0743 21.82 85.4412 19.1399 84.8519 15.8162C84.3404 12.9269 84.5227 10.1023 85.5823 7.37192C86.7717 4.30774 88.7535 1.92819 91.8749 0.698022C92.779 0.341818 93.7804 0.237208 94.7356 0.0160701ZM98.6711 20.4773C98.6077 20.3857 98.5356 20.2998 98.4571 20.2204C97.2541 19.218 96.0697 18.1917 94.835 17.2304C94.0764 16.6399 93.7631 15.6904 94.222 14.9872C94.7846 14.1225 95.6548 13.9279 96.507 14.59C97.8196 15.6043 99.0968 16.6676 100.359 17.7455C100.719 18.0527 100.941 18.1322 101.128 17.6409C101.5 16.6597 101.957 15.6983 102.202 14.6854C102.731 12.5549 102.643 10.3173 101.948 8.23526C101.226 6.06492 99.8856 4.37262 97.7202 3.58076C94.6816 2.46977 91.2122 3.79528 89.4523 6.53236C87.8941 8.95426 87.477 11.6 87.7349 14.4191C88.1311 18.6234 90.718 21.3049 94.8768 21.6015C96.2275 21.6982 97.5408 21.3883 98.6711 20.4773Z" fill="white"/>
<path d="M93.7719 42.5751C94.4519 43.6344 95.1709 44.7083 95.8315 45.8114C97.4977 48.5921 98.6129 51.5676 98.9695 54.8079C99.0206 55.2716 98.8909 55.7374 98.6078 56.1076C98.324 56.4778 97.909 56.7238 97.4487 56.7941C96.6095 56.9345 95.7983 56.3253 95.575 55.4143C95.2054 53.9048 94.9144 52.3687 94.4195 50.9015C93.5514 48.3498 92.0408 46.1464 90.4084 44.0237C90.2902 43.8701 90.0114 43.8158 89.7881 43.7787C89.6246 43.7509 89.4438 43.8304 89.2694 43.8556C88.0232 44.0383 88.0102 44.037 88.0088 45.3386C88.0088 48.537 88.0138 51.7353 88.0232 54.9336C88.0232 55.7149 87.6442 56.2816 86.9952 56.5504C86.4088 56.7928 85.674 56.8034 85.2194 56.2618C84.9039 55.8884 84.6395 55.3441 84.6222 54.8675C84.5487 52.7077 84.5487 50.544 84.5617 48.379C84.5949 43.0407 84.6395 37.7026 84.6935 32.3643C84.7072 30.8415 85.3304 30.1437 86.841 30.1569C88.4396 30.1715 90.0684 30.1384 91.6258 30.431C94.1868 30.913 96.2349 32.2968 97.1966 34.8273C98.0524 37.0784 97.3961 39.111 95.8041 40.8298C95.209 41.4786 94.4642 41.9924 93.7719 42.5751ZM88.1845 37.0135H88.0419C88.0419 37.9841 88.0419 38.9547 88.0419 39.9267C88.0419 40.2405 88.0678 40.5173 88.4921 40.4802C90.2506 40.3213 91.9039 39.8724 93.21 38.5999C94.4296 37.4081 94.3093 35.7105 92.9463 34.7492C91.6734 33.8513 90.2247 33.4938 88.6802 33.4687C88.3063 33.4687 88.1752 33.6091 88.1802 33.9745C88.1925 34.9875 88.1845 36.0005 88.1845 37.0135Z" fill="white"/>
<path d="M163.605 12.9003C162.99 13.5743 162.44 14.1331 161.947 14.7396C161.803 14.917 161.77 15.2308 161.778 15.4785C161.859 17.9243 161.986 20.37 162.032 22.8158C162.032 23.3507 161.884 23.8753 161.606 24.332C161.281 24.8536 160.656 24.9675 160.075 24.7676C159.335 24.512 158.985 23.9148 158.935 23.1521C158.861 22.008 158.756 20.8626 158.76 19.7172C158.78 13.7399 158.833 7.76245 158.868 1.78645C158.868 1.09522 159.17 0.610573 159.792 0.329848C160.372 0.0650113 160.907 0.197429 161.403 0.55893C161.898 0.92043 161.932 1.48585 161.919 2.04598C161.877 4.53809 161.833 7.0302 161.787 9.52233C161.769 9.77258 161.823 10.0228 161.944 10.2426C162.423 9.77784 162.909 9.3237 163.375 8.84833C165.935 6.23348 168.495 3.61602 171.055 0.995908C171.877 0.155055 172.938 0.0689835 173.58 0.805226C174.16 1.46731 174.143 2.26183 173.505 2.92392C171.838 4.66035 170.165 6.39194 168.484 8.11868C167.771 8.85495 167.072 9.60837 166.319 10.3022C165.958 10.6359 165.966 10.8756 166.217 11.2517C168.164 14.1649 170.102 17.0821 172.031 20.0032C172.478 20.6785 172.913 21.3631 173.352 22.0424C173.935 22.9416 173.767 23.8526 172.92 24.3809C172.189 24.8364 171.23 24.5544 170.702 23.7453C168.388 20.1965 166.059 16.6437 163.605 12.9003Z" fill="white"/>
<path d="M106.189 46.6802C106.331 48.8068 106.474 50.8513 106.6 52.9038C106.627 53.3633 106.923 53.456 107.273 53.4335C109.14 53.3501 111.006 53.2653 112.872 53.1488C113.532 53.1091 114.176 52.9515 114.832 52.8998C115.597 52.8402 116.433 53.554 116.573 54.3313C116.706 55.0807 116.159 55.9534 115.323 56.1851C114.669 56.3663 114 56.4899 113.325 56.5546C110.52 56.8194 107.714 57.0683 104.901 56.6248C104.124 56.5016 103.573 56.0832 103.508 55.2833C103.258 52.2112 102.99 49.1365 102.876 46.0565C102.779 43.4081 102.813 40.7597 102.922 38.1114C103.009 35.9794 103.27 33.8528 103.503 31.7302C103.583 30.9913 104.132 30.5384 104.858 30.406C108.091 29.826 111.34 29.8393 114.595 30.157C115.098 30.2147 115.595 30.3089 116.085 30.4391C116.931 30.6496 117.441 31.5302 117.273 32.4466C117.133 33.2318 116.4 33.78 115.546 33.727C113.445 33.5947 111.345 33.4423 109.243 33.343C108.611 33.3139 107.971 33.4331 107.337 33.4926C106.863 33.5377 106.596 33.743 106.572 34.2872C106.458 37.0238 106.324 39.756 106.169 42.4838C106.137 43.0281 106.336 43.1883 106.841 43.1539C107.456 43.1128 108.072 43.1023 108.691 43.0983C109.726 43.0983 110.434 43.7339 110.494 44.7058C110.55 45.597 109.937 46.3147 108.961 46.4273C108.078 46.5477 107.181 46.5967 106.189 46.6802Z" fill="white"/>
<path d="M125.145 50.7438C125.145 52.1117 125.162 53.4796 125.138 54.8488C125.124 55.7188 124.478 56.467 123.711 56.5941C123.308 56.6551 122.897 56.5754 122.546 56.3682C122.196 56.161 121.927 55.8391 121.786 55.4566C121.719 55.2473 121.688 55.0285 121.693 54.8091C121.723 47.5517 121.757 40.2934 121.796 33.0342C121.796 32.7919 121.81 32.5496 121.832 32.3073C121.929 31.1539 122.442 30.5607 123.592 30.4706C126.49 30.2456 129.29 30.4919 131.744 32.3086C133.552 33.6473 134.689 35.3542 135.014 37.6225C135.559 41.419 133.197 44.3189 130.404 45.3849C128.927 45.9673 127.34 46.2129 125.757 46.1039C125.2 46.0602 125.083 46.2787 125.097 46.774C125.119 48.0981 125.105 49.4223 125.105 50.7465L125.145 50.7438ZM125.206 38.1734H125.162C125.162 39.4724 125.172 40.7727 125.156 42.0718C125.156 42.4518 125.256 42.6544 125.67 42.6359C126.521 42.5948 127.403 42.7021 128.218 42.5154C131.646 41.7209 132.771 38.3628 130.693 35.8799C129.399 34.3346 127.588 33.9347 125.702 33.7493C125.263 33.7056 125.203 33.9956 125.205 34.3426C125.208 35.6191 125.2 36.8969 125.2 38.1734H125.206Z" fill="white"/>
<path d="M126.968 8.74629C126.689 11.3827 126.477 14.2377 126.058 17.0621C125.777 18.9637 125.321 20.8811 123.881 22.3284C121.672 24.5477 119.033 25.4746 115.918 24.8933C113.181 24.3835 111.527 22.5866 110.447 20.1726C109.325 17.7268 108.768 15.0591 108.818 12.3679C108.896 8.97271 109.026 5.57883 109.156 2.18628C109.183 1.51095 109.376 0.883286 110.081 0.566809C111.19 0.0649449 112.377 0.831645 112.339 2.07505C112.282 3.88123 112.091 5.68344 112.068 7.48828C112.035 9.97644 111.979 12.4765 112.171 14.9527C112.319 16.7541 112.909 18.4909 113.889 20.0084C115.227 22.1165 117.379 22.3456 119.594 21.5974C121.528 20.9472 122.418 19.39 122.791 17.5057C123.608 13.3769 123.948 9.21504 123.541 5.01076C123.45 4.07059 123.363 3.12778 123.232 2.1929C123.076 1.07794 123.847 0.33905 124.6 0.287407C125.532 0.221198 126.215 0.791919 126.328 1.86716C126.558 4.08119 126.743 6.29257 126.968 8.74629Z" fill="white"/>
<path d="M139.578 13.7757C139.651 15.9685 140.163 18.2064 141.839 20.0139C142.927 21.1884 144.299 21.8572 145.908 21.9115C147.34 21.9591 148.764 21.8744 150.111 21.2785C151.141 20.8203 151.887 20.1185 152.267 19.034C152.539 18.2567 153.415 17.7906 154.094 18.0224C154.495 18.1535 154.831 18.4351 155.03 18.8082C155.228 19.1814 155.276 19.6172 155.161 20.0245C154.553 22.0306 153.18 23.3853 151.294 24.144C149.068 25.0365 146.721 25.3067 144.37 24.7876C141.429 24.1387 139.252 22.4438 137.888 19.7054C136.585 17.0928 136.202 14.3372 136.588 11.4862C137.151 7.33882 138.797 3.7596 142.485 1.46876C144.676 0.108833 147.1 -0.100389 149.602 0.459739C150.849 0.716828 152.008 1.29712 152.961 2.14277C153.59 2.71085 153.745 3.34248 153.448 3.96617C153.298 4.28845 153.044 4.55101 152.728 4.71186C152.412 4.8727 152.051 4.92254 151.703 4.85337C151.363 4.77464 151.047 4.61778 150.778 4.39521C149.483 3.38751 148.003 3.09486 146.435 3.33586C143.313 3.82183 141.595 5.91669 140.503 8.68424C139.884 10.2653 139.621 11.898 139.578 13.7757Z" fill="white"/>
<path d="M165.995 40.0114C166.463 39.1388 166.912 38.323 167.339 37.4955C168.462 35.3176 169.579 33.1363 170.691 30.9513C171.017 30.3118 171.516 29.9225 172.242 29.9105C172.902 29.8987 173.52 30.1635 173.739 30.7872C173.903 31.2585 173.977 31.926 173.767 32.3391C170.746 38.2675 167.668 44.164 164.612 50.0725C163.657 51.9264 162.719 53.7803 161.782 55.6341C161.371 56.4511 160.256 56.9159 159.488 56.561C158.66 56.1836 158.253 55.0766 158.696 54.2014C160.31 51.0233 161.971 47.8704 163.584 44.6897C164.472 42.9365 164.509 43.498 163.279 42.097C160.674 39.1441 158.075 36.1867 155.484 33.225C154.703 32.3325 154.759 31.4254 155.6 30.6866C156.292 30.0774 157.31 30.2164 158.035 31.0414C160.172 33.4739 162.303 35.9131 164.44 38.3377C164.92 38.8806 165.421 39.397 165.995 40.0114Z" fill="white"/>
<path d="M139.161 43.4784C139.313 39.3616 139.454 35.4618 139.608 31.5608C139.62 31.219 139.74 30.8898 139.951 30.6203C140.16 30.3509 140.451 30.155 140.778 30.0605C141.571 29.8565 142.355 30.0791 142.665 30.7424C142.869 31.1768 142.917 31.7171 142.912 32.2084C142.868 36.6404 142.768 41.0724 142.743 45.5044C142.73 47.8403 142.849 50.1774 142.875 52.5146C142.875 53.0774 143.066 53.276 143.633 53.3091C147.039 53.4839 150.445 53.6441 153.852 53.3409C154.635 53.2707 155.384 53.7382 155.584 54.3672C155.861 55.2371 155.659 55.9959 154.923 56.4329C154.549 56.6555 154.124 56.7769 153.689 56.7851C150.15 56.7679 146.611 56.7123 143.072 56.6646C142.479 56.6567 141.883 56.6262 141.291 56.6143C140.366 56.5958 139.655 55.9522 139.617 55.0332C139.454 51.1097 139.307 47.1888 139.161 43.4784Z" fill="white"/>
<path d="M130.365 12.5399C130.365 9.12091 130.365 5.70316 130.365 2.28413C130.365 1.38369 131.099 0.609046 131.934 0.663337C132.625 0.708359 133.437 1.16388 133.435 2.2603C133.435 3.56197 133.4 4.86231 133.391 6.16398C133.356 11.6567 133.337 17.1547 133.269 22.6408C133.251 23.1758 133.081 23.6945 132.779 24.1371C132.406 24.6827 131.753 24.7223 131.162 24.4734C130.852 24.3542 130.586 24.1414 130.401 23.8645C130.216 23.5874 130.122 23.2599 130.131 22.9268C130.118 21.4053 130.144 19.8812 130.148 18.361C130.148 16.4189 130.148 14.4767 130.148 12.5346L130.365 12.5399Z" fill="white"/>
<path d="M70.5178 28.5467C70.5178 37.7453 70.5152 46.9453 70.5099 56.1466C70.5099 56.4286 70.6962 56.8947 70.1413 56.8762C69.9722 56.8762 69.774 56.663 69.6591 56.4988C69.5864 56.3942 69.6405 56.1996 69.6405 56.0446V0.97725C69.6405 0.80114 69.5825 0.579998 69.667 0.459497C69.7986 0.288233 69.9854 0.167973 70.1955 0.119184C70.2708 0.100646 70.4399 0.338998 70.5099 0.487306C70.5615 0.595889 70.5205 0.752141 70.5205 0.884558V28.5467H70.5178Z" fill="white"/>
<path d="M50.857 49.0002C51.6761 49.4822 52.3869 49.9046 53.103 50.3244C53.539 50.5773 53.979 50.821 54.4242 51.0633C55.5776 51.6962 56.3043 53.1462 56.0585 54.3327C55.7943 55.6264 54.5167 56.7003 53.1704 56.8486C51.902 56.981 50.886 56.4169 49.8674 55.8091C46.8524 54.0215 43.8387 52.2338 40.8093 50.4753C40.4513 50.2781 40.0499 50.1734 39.6413 50.1708C32.199 50.147 24.7568 50.184 17.3131 50.1218C13.985 50.094 10.6952 49.6596 7.56666 48.4003C5.63638 47.6244 3.86069 46.5942 2.50778 44.9853C0.987486 43.2237 0.128192 40.9857 0.0780972 38.657C-0.00645953 35.0169 0.00278916 31.374 0.00411036 27.7339C0.00411036 22.4822 -0.0249547 17.2292 0.0714927 11.9761C0.150765 7.65664 2.33073 4.58853 6.07765 2.57445C8.54171 1.25027 11.2145 0.637173 13.9599 0.409414C16.5005 0.198869 19.0571 0.119419 21.6083 0.10088C27.5973 0.0585063 33.5876 0.0306975 39.5766 0.110148C42.2316 0.129977 44.8827 0.316612 47.5143 0.668952C50.4117 1.0768 53.1955 1.96003 55.5922 3.77681C58.1672 5.73262 59.487 8.36505 59.6958 11.5603C59.7935 13.0554 59.787 14.5583 59.7896 16.0625C59.7896 22.9695 59.8213 29.8777 59.7645 36.7846C59.7526 38.2413 59.6007 39.7548 59.199 41.1544C58.3257 44.2 56.2752 46.3253 53.4862 47.7502C52.6762 48.158 51.8412 48.5341 50.857 49.0002ZM52.1306 25.3292H52.1571C52.1571 21.0719 52.165 16.8147 52.1571 12.5562C52.1571 10.7155 51.3062 9.31983 49.7511 8.37304C47.0783 6.74429 44.07 6.24772 41.0418 6.19872C33.6695 6.07823 26.2946 6.13914 18.921 6.1643C16.435 6.18217 13.9709 6.63246 11.6386 7.49508C9.6251 8.2287 8.11495 9.51846 7.67501 11.755C7.61291 12.0792 7.58237 12.4087 7.58381 12.7389C7.57855 20.9673 7.57855 29.1958 7.58381 37.4242C7.58381 39.3217 8.34879 40.8512 9.92759 41.9635C11.2854 42.9045 12.8476 43.5074 14.4844 43.722C16.7846 44.0491 19.1086 44.3285 21.4326 44.3391C28.76 44.3696 36.0873 44.2716 43.4147 44.2066C45.393 44.21 47.343 43.7358 49.0998 42.8242C50.9495 41.8523 52.0791 40.3335 52.1134 38.2333C52.1808 33.9337 52.1306 29.6314 52.1306 25.3292Z" fill="white"/>
<path d="M31.0072 28.5639C32.6468 26.8544 34.2415 25.1832 35.8441 23.5214C37.7546 21.5386 39.669 19.5608 41.5874 17.5878C42.1158 17.0409 42.8015 17.021 43.2891 17.4858C43.8017 17.9744 43.7911 18.6776 43.2415 19.2457C39.5633 23.0699 35.8815 26.8919 32.1963 30.7117C31.3718 31.5658 30.9002 31.5791 29.9965 30.815C28.434 29.4908 26.874 28.1667 25.3168 26.8425C24.7104 26.326 24.6073 25.6428 25.0406 25.1038C25.474 24.5649 26.2073 24.5092 26.8454 25.0429C28.2102 26.187 29.5658 27.3469 31.0072 28.5639Z" fill="white"/>
<path d="M44.2379 20.4153C44.996 21.8633 45.473 23.4423 45.6436 25.0685C46.4641 32.5554 41.6919 39.2372 34.3131 40.7547C29.5383 41.7359 25.2959 40.4793 21.689 37.1609C21.6242 37.1013 21.5648 37.0351 21.5014 36.9755C21.2372 36.7253 21.0694 36.4366 21.3587 36.1174C21.6481 35.7983 21.9691 35.9215 22.2835 36.1638C23.2084 36.8762 24.0777 37.6707 25.0739 38.2533C32.9892 42.8734 43.4386 37.5621 44.4955 28.424C44.7505 26.2298 44.5444 24.0992 43.7028 22.0679C43.3963 21.3224 43.428 20.8311 44.2379 20.4153Z" fill="white"/>
<path d="M32.0562 10.1237V12.2795C33.6865 12.7058 35.2931 13.0435 36.8416 13.5546C38.39 14.0658 39.7482 14.994 40.9968 16.1606L40.2952 16.7883C38.9053 16.0189 37.6343 15.0894 36.214 14.5676C31.0309 12.6622 26.3632 13.6553 22.2819 17.3934C21.9464 17.7006 21.6069 18.2965 21.1022 17.7377C20.6252 17.2081 21.2012 16.8611 21.5249 16.5459C24.0457 14.1108 27.0647 12.7813 30.5526 12.5178C30.6385 12.5178 30.7231 12.4953 30.8486 12.4781V10.121C30.2409 10.121 29.6595 10.121 29.0637 10.121C28.6594 10.121 28.3555 9.98863 28.3621 9.52917C28.3621 9.10404 28.6541 8.97827 29.032 8.97827C30.6606 8.97827 32.29 8.97827 33.9204 8.97827C34.3273 8.97827 34.6339 9.11067 34.618 9.56754C34.6022 10.0244 34.2811 10.1303 33.8821 10.1237C33.2889 10.1158 32.6983 10.1237 32.0562 10.1237Z" fill="white"/>
<path d="M42.5034 22.1829C43.888 25.7846 43.7691 29.2539 41.9313 32.5723C38.5781 38.6239 31.0262 40.5413 25.1694 36.8905C25.057 36.8217 24.8945 36.7713 24.847 36.6707C24.7454 36.4161 24.6607 36.1551 24.5933 35.8894C24.8447 35.8102 25.1018 35.75 25.3622 35.7094C25.4679 35.6987 25.5881 35.8272 25.7004 35.8973C29.5583 38.3167 34.3609 38.1485 37.9611 35.4551C41.5614 32.7617 43.1138 28.2012 41.8256 23.8023C41.5918 23.0025 41.8772 22.6212 42.5034 22.1829Z" fill="white"/>
<path d="M39.4365 17.7892L38.5301 18.6075C37.3529 17.6396 36.0318 16.8649 34.5229 16.4571C31.3613 15.603 28.3807 15.9896 25.6168 17.7998L25.5057 17.8713C25.1715 18.1057 24.7818 18.3825 24.4673 17.9494C24.1529 17.5165 24.4805 17.1814 24.8637 16.9391C28.7665 14.4589 32.8093 14.1914 36.9645 16.2293C37.8035 16.6358 38.5539 17.2238 39.4365 17.7892Z" fill="white"/>
<path d="M18.2647 22.3246C16.7269 22.3246 15.1877 22.3246 13.6498 22.3246C13.2442 22.3246 12.8505 22.2902 12.836 21.7883C12.8188 21.2494 13.2217 21.1818 13.6577 21.1831C16.7353 21.1831 19.8124 21.1831 22.889 21.1831C23.2972 21.1831 23.7359 21.1831 23.7319 21.7604C23.728 22.3378 23.2879 22.318 22.8811 22.318L18.2647 22.3246Z" fill="white"/>
<path d="M15.0306 27.0916C13.4702 27.0916 11.9099 27.0916 10.3496 27.0916C9.95321 27.0916 9.56737 27.0612 9.55685 26.5368C9.54626 26.0124 9.93599 25.9582 10.3323 25.9568H19.6944C20.0907 25.9568 20.4725 26.0204 20.4475 26.5514C20.4224 27.0824 20.0419 27.0943 19.6429 27.093C18.1076 27.089 16.5698 27.0916 15.0306 27.0916Z" fill="white"/>
<path d="M18.3222 30.7503C19.8372 30.7503 21.353 30.7503 22.8698 30.7503C23.2661 30.7503 23.7233 30.6973 23.7325 31.2893C23.7418 31.8812 23.3176 31.86 22.9002 31.86C19.8024 31.86 16.7046 31.86 13.6069 31.86C13.1524 31.86 12.7943 31.77 12.8446 31.2204C12.8828 30.7847 13.2224 30.745 13.5765 30.7464C15.1579 30.753 16.7394 30.7503 18.3222 30.7503Z" fill="white"/>
</svg>
