<svg width="30" height="30" viewBox="0 0 30 30" fill="none" xmlns="http://www.w3.org/2000/svg">
<rect width="30" height="30" rx="5" fill="#3E4DA8"/>
<path fill-rule="evenodd" clip-rule="evenodd" d="M19.7924 20.853C19.7029 20.9308 19.5922 20.9803 19.4746 20.9952C19.3569 21.0102 19.2374 20.9899 19.1313 20.937L8.33233 15.5372C8.23249 15.4874 8.14851 15.4108 8.0898 15.3159C8.0311 15.2211 8 15.1117 8 15.0002C8 14.8886 8.0311 14.7793 8.0898 14.6844C8.14851 14.5896 8.23249 14.513 8.33233 14.4632L19.1313 9.06342C19.2374 9.0103 19.3569 8.98987 19.4747 9.0047C19.5925 9.01954 19.7032 9.06898 19.7929 9.14676C19.8825 9.22455 19.9471 9.32718 19.9784 9.44168C20.0097 9.55618 20.0064 9.6774 19.9688 9.78999L18.4317 14.4002H15.1999C15.0407 14.4002 14.8881 14.4634 14.7756 14.5759C14.6631 14.6885 14.5999 14.8411 14.5999 15.0002C14.5999 15.1593 14.6631 15.3119 14.7756 15.4244C14.8881 15.537 15.0407 15.6002 15.1999 15.6002H18.4317L19.9694 20.2104C20.0068 20.3229 20.01 20.444 19.9786 20.5584C19.9472 20.6728 19.882 20.7753 19.7924 20.853Z" fill="white"/>
</svg>
